{
  "accessors": [
    {
      "bufferView": 2,
      "componentType": 5126,
      "count": 686,
      "max": [
        1.1158626079559326,
        1.210428237915039,
        -1.313938856124878
      ],
      "min": [
        -1.1655259132385254,
        0.946547269821167,
        -1.8581269979476929
      ],
      "type": "VEC3"
    },
    {
      "bufferView": 2,
      "byteOffset": 8232,
      "componentType": 5126,
      "count": 686,
      "max": [
        0.9967955350875854,
        0.999742329120636,
        0.9691132307052612
      ],
      "min": [
        -0.99998539686203,
        -0.9997225999832153,
        -0.9936411380767822
      ],
      "type": "VEC3"
    },
    {
      "bufferView": 1,
      "componentType": 5126,
      "count": 686,
      "max": [
        0.0,
        0.0
      ],
      "min": [
        0.0,
        0.0
      ],
      "type": "VEC2"
    },
    {
      "bufferView": 0,
      "componentType": 5125,
      "count": 4092,
      "type": "SCALAR"
    },
    {
      "bufferView": 2,
      "byteOffset": 16464,
      "componentType": 5126,
      "count": 684,
      "max": [
        1.3816109895706177,
        1.2145205736160278,
        -1.3830530643463135
      ],
      "min": [
        -1.3816109895706177,
        0.9630299806594849,
        -1.6911340951919556
      ],
      "type": "VEC3"
    },
    {
      "bufferView": 2,
      "byteOffset": 24672,
      "componentType": 5126,
      "count": 684,
      "max": [
        0.9935852289199829,
        0.9997422695159912,
        0.999518096446991
      ],
      "min": [
        -0.9935852289199829,
        -0.9954705834388733,
        -0.995943009853363
      ],
      "type": "VEC3"
    },
    {
      "bufferView": 1,
      "byteOffset": 5488,
      "componentType": 5126,
      "count": 684,
      "max": [
        0.0,
        0.0
      ],
      "min": [
        0.0,
        0.0
      ],
      "type": "VEC2"
    },
    {
      "bufferView": 0,
      "byteOffset": 16368,
      "componentType": 5125,
      "count": 4080,
      "type": "SCALAR"
    },
    {
      "bufferView": 2,
      "byteOffset": 32880,
      "componentType": 5126,
      "count": 25666,
      "max": [
        3.620957374572754,
        0.9753544330596924,
        -1.5664198398590088
      ],
      "min": [
        -4.092685222625732,
        -0.6701423525810242,
        -4.084557056427002
      ],
      "type": "VEC3"
    },
    {
      "bufferView": 2,
      "byteOffset": 340872,
      "componentType": 5126,
      "count": 25666,
      "max": [
        0.999950110912323,
        0.9998868703842163,
        0.9999335408210754
      ],
      "min": [
        -0.9998868703842163,
        -0.9999937415122986,
        -0.9999879598617554
      ],
      "type": "VEC3"
    },
    {
      "bufferView": 0,
      "byteOffset": 32688,
      "componentType": 5125,
      "count": 153972,
      "type": "SCALAR"
    },
    {
      "bufferView": 2,
      "byteOffset": 648864,
      "componentType": 5126,
      "count": 25666,
      "max": [
        1.7775872945785522,
        2.780251979827881,
        -1.386483907699585
      ],
      "min": [
        -1.8617548942565918,
        0.3342890739440918,
        -2.4592928886413574
      ],
      "type": "VEC3"
    },
    {
      "bufferView": 2,
      "byteOffset": 956856,
      "componentType": 5126,
      "count": 25666,
      "max": [
        0.9999627470970154,
        0.9998604655265808,
        0.9999989867210388
      ],
      "min": [
        -0.9997982978820801,
        -0.9999687075614929,
        -0.9999741911888123
      ],
      "type": "VEC3"
    },
    {
      "bufferView": 0,
      "byteOffset": 648576,
      "componentType": 5125,
      "count": 153972,
      "type": "SCALAR"
    },
    {
      "bufferView": 2,
      "byteOffset": 1264848,
      "componentType": 5126,
      "count": 12833,
      "max": [
        1.7302253246307373,
        2.731706380844116,
        -1.5766870975494385
      ],
      "min": [
        0.8534272313117981,
        0.3919486999511719,
        -2.4004440307617188
      ],
      "type": "VEC3"
    },
    {
      "bufferView": 2,
      "byteOffset": 1418844,
      "componentType": 5126,
      "count": 12833,
      "max": [
        0.9999696612358093,
        0.9997808337211609,
        0.9999990463256836
      ],
      "min": [
        -0.9998076558113098,
        -0.9999508261680603,
        -0.9999819397926331
      ],
      "type": "VEC3"
    },
    {
      "bufferView": 0,
      "byteOffset": 1264464,
      "componentType": 5125,
      "count": 76986,
      "type": "SCALAR"
    },
    {
      "bufferView": 2,
      "byteOffset": 1572840,
      "componentType": 5126,
      "count": 13432,
      "max": [
        1.9154083728790283,
        1.2466001510620117,
        -0.46887314319610596
      ],
      "min": [
        -1.9154376983642578,
        -1.2466001510620117,
        -2.840829849243164
      ],
      "type": "VEC3"
    },
    {
      "bufferView": 2,
      "byteOffset": 1734024,
      "componentType": 5126,
      "count": 13432,
      "max": [
        0.9989855289459229,
        0.9997562766075134,
        0.9998639822006226
      ],
      "min": [
        -0.9973121285438538,
        -0.9997562766075134,
        -0.9968147873878479
      ],
      "type": "VEC3"
    },
    {
      "bufferView": 0,
      "byteOffset": 1572408,
      "componentType": 5125,
      "count": 79248,
      "type": "SCALAR"
    },
    {
      "bufferView": 2,
      "byteOffset": 1895208,
      "componentType": 5126,
      "count": 10984,
      "max": [
        1.2235990762710571,
        0.9548019170761108,
        0.9997239708900452
      ],
      "min": [
        -1.2236254215240479,
        -0.9547856450080872,
        -0.9997425675392151
      ],
      "type": "VEC3"
    },
    {
      "bufferView": 2,
      "byteOffset": 2027016,
      "componentType": 5126,
      "count": 10984,
      "max": [
        0.9997527003288269,
        0.9998978972434998,
        0.9999095797538757
      ],
      "min": [
        -0.9997525215148926,
        -0.9998978972434998,
        -0.9997490644454956
      ],
      "type": "VEC3"
    },
    {
      "bufferView": 0,
      "byteOffset": 1889400,
      "componentType": 5125,
      "count": 65892,
      "type": "SCALAR"
    },
    {
      "bufferView": 2,
      "byteOffset": 2158824,
      "componentType": 5126,
      "count": 4704,
      "max": [
        0.5360839366912842,
        0.13014113903045654,
        0.043479740619659424
      ],
      "min": [
        -0.5465468168258667,
        -0.15931199491024017,
        -0.04347975552082062
      ],
      "type": "VEC3"
    },
    {
      "bufferView": 2,
      "byteOffset": 2215272,
      "componentType": 5126,
      "count": 4704,
      "max": [
        0.9996753931045532,
        0.9997913241386414,
        0.9999974370002747
      ],
      "min": [
        -0.9999837875366211,
        -0.9999063611030579,
        -0.9999974370002747
      ],
      "type": "VEC3"
    },
    {
      "bufferView": 1,
      "byteOffset": 10960,
      "componentType": 5126,
      "count": 4704,
      "max": [
        1.0,
        1.0
      ],
      "min": [
        0.0,
        0.0
      ],
      "type": "VEC2"
    },
    {
      "bufferView": 0,
      "byteOffset": 2152968,
      "componentType": 5125,
      "count": 27360,
      "type": "SCALAR"
    },
    {
      "bufferView": 2,
      "byteOffset": 2271720,
      "componentType": 5126,
      "count": 12833,
      "max": [
        1.7302253246307373,
        2.731706380844116,
        -1.5766870975494385
      ],
      "min": [
        0.8534272313117981,
        0.3919486999511719,
        -2.4004440307617188
      ],
      "type": "VEC3"
    },
    {
      "bufferView": 2,
      "byteOffset": 2425716,
      "componentType": 5126,
      "count": 12833,
      "max": [
        0.9999696612358093,
        0.9997808337211609,
        0.9999990463256836
      ],
      "min": [
        -0.9998076558113098,
        -0.9999508261680603,
        -0.9999819397926331
      ],
      "type": "VEC3"
    },
    {
      "bufferView": 0,
      "byteOffset": 2262408,
      "componentType": 5125,
      "count": 76986,
      "type": "SCALAR"
    }
  ],
  "asset": {
    "extras": {
      "author": "kqi (https://sketchfab.com/kqilpo)",
      "license": "CC-BY-4.0 (http://creativecommons.org/licenses/by/4.0/)",
      "source": "https://sketchfab.com/3d-models/cinnamoroll-c8ce03d3dabd43c68f808d222c921fb8",
      "title": "Cinnamoroll"
    },
    "generator": "Sketchfab-15.29.0",
    "version": "2.0"
  },
  "bufferViews": [
    {
      "buffer": 0,
      "byteLength": 2570352,
      "name": "floatBufferViews",
      "target": 34963
    },
    {
      "buffer": 0,
      "byteLength": 48592,
      "byteOffset": 2570352,
      "byteStride": 8,
      "name": "floatBufferViews",
      "target": 34962
    },
    {
      "buffer": 0,
      "byteLength": 2579712,
      "byteOffset": 2618944,
      "byteStride": 12,
      "name": "floatBufferViews",
      "target": 34962
    }
  ],
  "buffers": [
    {
      "byteLength": 5198656,
      "uri": "scene.bin"
    }
  ],
  "images": [
    {
      "uri": "textures/eyes_baseColor.png"
    },
    {
      "uri": "textures/blush_baseColor.png"
    },
    {
      "uri": "textures/Material.005_baseColor.png"
    }
  ],
  "materials": [
    {
      "doubleSided": true,
      "name": "eyes",
      "pbrMetallicRoughness": {
        "baseColorTexture": {
          "index": 0
        },
        "metallicFactor": 0.0,
        "roughnessFactor": 0.5
      }
    },
    {
      "doubleSided": true,
      "name": "blush",
      "pbrMetallicRoughness": {
        "baseColorTexture": {
          "index": 1
        },
        "metallicFactor": 0.0,
        "roughnessFactor": 0.5
      }
    },
    {
      "doubleSided": true,
      "name": "body",
      "pbrMetallicRoughness": {
        "metallicFactor": 0.0,
        "roughnessFactor": 0.5
      }
    },
    {
      "doubleSided": true,
      "name": "Material.005",
      "pbrMetallicRoughness": {
        "baseColorTexture": {
          "index": 2
        },
        "metallicFactor": 0.0,
        "roughnessFactor": 0.5
      }
    }
  ],
  "meshes": [
    {
      "name": "Object_0",
      "primitives": [
        {
          "attributes": {
            "NORMAL": 1,
            "POSITION": 0,
            "TEXCOORD_0": 2
          },
          "indices": 3,
          "material": 0,
          "mode": 4
        }
      ]
    },
    {
      "name": "Object_1",
      "primitives": [
        {
          "attributes": {
            "NORMAL": 5,
            "POSITION": 4,
            "TEXCOORD_0": 6
          },
          "indices": 7,
          "material": 1,
          "mode": 4
        }
      ]
    },
    {
      "name": "Object_2",
      "primitives": [
        {
          "attributes": {
            "NORMAL": 9,
            "POSITION": 8
          },
          "indices": 10,
          "material": 2,
          "mode": 4
        }
      ]
    },
    {
      "name": "Object_3",
      "primitives": [
        {
          "attributes": {
            "NORMAL": 12,
            "POSITION": 11
          },
          "indices": 13,
          "material": 2,
          "mode": 4
        }
      ]
    },
    {
      "name": "Object_4",
      "primitives": [
        {
          "attributes": {
            "NORMAL": 15,
            "POSITION": 14
          },
          "indices": 16,
          "material": 2,
          "mode": 4
        }
      ]
    },
    {
      "name": "Object_5",
      "primitives": [
        {
          "attributes": {
            "NORMAL": 18,
            "POSITION": 17
          },
          "indices": 19,
          "material": 2,
          "mode": 4
        }
      ]
    },
    {
      "name": "Object_6",
      "primitives": [
        {
          "attributes": {
            "NORMAL": 21,
            "POSITION": 20
          },
          "indices": 22,
          "material": 2,
          "mode": 4
        }
      ]
    },
    {
      "name": "Object_7",
      "primitives": [
        {
          "attributes": {
            "NORMAL": 24,
            "POSITION": 23,
            "TEXCOORD_0": 25
          },
          "indices": 26,
          "material": 3,
          "mode": 4
        }
      ]
    },
    {
      "name": "Object_8",
      "primitives": [
        {
          "attributes": {
            "NORMAL": 28,
            "POSITION": 27
          },
          "indices": 29,
          "material": 2,
          "mode": 4
        }
      ]
    }
  ],
  "nodes": [
    {
      "children": [
        1
      ],
      "matrix": [
        1.0,
        0.0,
        0.0,
        0.0,
        0.0,
        0.009739166125655396,
        -0.9999525547027588,
        0.0,
        0.0,
        0.9999525547027588,
        0.009739166125655396,
        0.0,
        0.0,
        0.0,
        0.0,
        1.0
      ],
      "name": "Sketchfab_model"
    },
    {
      "children": [
        2
      ],
      "name": "root"
    },
    {
      "children": [
        3,
        5,
        7,
        9,
        11,
        13,
        15,
        17,
        19
      ],
      "matrix": [
        1.0,
        0.0,
        0.0,
        0.0,
        0.0,
        2.220446049250313e-16,
        1.0,
        0.0,
        0.0,
        -1.0,
        2.220446049250313e-16,
        0.0,
        0.0,
        0.0,
        0.0,
        1.0
      ],
      "name": "GLTF_SceneRootNode"
    },
    {
      "children": [
        4
      ],
      "matrix": [
        0.971072256565094,
        0.0,
        0.0,
        0.0,
        0.0,
        -1.6371054396669283e-07,
        0.9710722565650802,
        0.0,
        0.0,
        -0.9710722565650802,
        -1.6371054396669283e-07,
        0.0,
        -0.0036067962646484375,
        1.0172110795974731,
        2.1526834964752197,
        1.0
      ],
      "name": "7_0"
    },
    {
      "mesh": 0,
      "name": "Object_4"
    },
    {
      "children": [
        6
      ],
      "matrix": [
        0.9573007225990295,
        0.0,
        0.0,
        0.0,
        0.0,
        -1.6138883690360048e-07,
        0.9573007225990159,
        0.0,
        0.0,
        -0.9573007225990159,
        -1.6138883690360048e-07,
        0.0,
        -0.0036067962646484375,
        0.5465521216392517,
        2.106703996658325,
        1.0
      ],
      "name": "6_1"
    },
    {
      "mesh": 1,
      "name": "Object_6"
    },
    {
      "children": [
        8
      ],
      "matrix": [
        0.9965880513191223,
        0.0,
        0.0,
        0.0,
        0.0,
        -1.6801218538491252e-07,
        0.9965880513191081,
        0.0,
        0.0,
        -0.9965880513191081,
        -1.6801218538491252e-07,
        0.0,
        -0.0036067962646484375,
        1.0172110795974731,
        2.2105376720428467,
        1.0
      ],
      "name": "5_2"
    },
    {
      "mesh": 2,
      "name": "Object_8"
    },
    {
      "children": [
        10
      ],
      "matrix": [
        0.5756761431694031,
        0.0,
        0.0,
        0.0,
        0.0,
        -9.705174245248683e-08,
        0.5756761431693949,
        0.0,
        0.0,
        -0.5756761431693949,
        -9.705174245248683e-08,
        0.0,
        -0.0036067962646484375,
        -0.7985939979553223,
        2.2105376720428467,
        1.0
      ],
      "name": "4_3"
    },
    {
      "mesh": 3,
      "name": "Object_10"
    },
    {
      "children": [
        12
      ],
      "matrix": [
        -0.043409657368452696,
        -0.024433769912251563,
        -0.5823477474881142,
        0.0,
        0.5337317448209485,
        0.3004189106605676,
        -0.0523904811881084,
        0.0,
        0.2819771430901418,
        -0.5009676405837209,
        -5.329757020085243e-09,
        0.0,
        1.2897744178771973,
        -0.03441835939884186,
        3.363955497741699,
        1.0
      ],
      "name": "3_4"
    },
    {
      "mesh": 4,
      "name": "Object_12"
    },
    {
      "children": [
        14
      ],
      "matrix": [
        0.9669520854949951,
        0.0,
        0.0,
        0.0,
        0.0,
        -1.6301593505107244e-07,
        0.9669520854949814,
        0.0,
        0.0,
        -0.9669520854949814,
        -1.6301593505107244e-07,
        0.0,
        -0.0036067962646484375,
        1.0172110795974731,
        2.2105376720428467,
        1.0
      ],
      "name": "2_5"
    },
    {
      "mesh": 5,
      "name": "Object_14"
    },
    {
      "children": [
        16
      ],
      "matrix": [
        0.9592979550361633,
        0.0,
        0.0,
        0.0,
        0.0,
        -1.61725545121244e-07,
        0.9592979550361497,
        0.0,
        0.0,
        -0.9592979550361497,
        -1.61725545121244e-07,
        0.0,
        -0.0036067962646484375,
        1.0172110795974731,
        2.2105376720428467,
        1.0
      ],
      "name": "1_6"
    },
    {
      "mesh": 6,
      "name": "Object_16"
    },
    {
      "children": [
        18
      ],
      "matrix": [
        0.4881681799888611,
        0.0,
        0.0,
        0.0,
        0.0,
        0.4870228047363125,
        0.0334209458336038,
        0.0,
        0.0,
        -0.0334209458336038,
        0.4870228047363125,
        0.0,
        -0.0008516507223248482,
        2.1296002864837646,
        3.4128265380859375,
        1.0
      ],
      "name": "NurbsPath.009_7"
    },
    {
      "mesh": 7,
      "name": "Object_18"
    },
    {
      "children": [
        20
      ],
      "matrix": [
        -0.04775631530502319,
        -0.020742357925494528,
        0.5821506638368024,
        0.0,
        -0.5615805982802217,
        -0.2439148782427492,
        -0.054759689902981995,
        0.0,
        0.22901922577490996,
        -0.5272853879662862,
        -4.790694698175377e-08,
        0.0,
        0.08734586834907532,
        0.37571972608566284,
        1.8641130924224854,
        1.0
      ],
      "name": "8_8"
    },
    {
      "mesh": 8,
      "name": "Object_20"
    }
  ],
  "samplers": [
    {
      "magFilter": 9729,
      "minFilter": 9987,
      "wrapS": 10497,
      "wrapT": 10497
    }
  ],
  "scene": 0,
  "scenes": [
    {
      "name": "Sketchfab_Scene",
      "nodes": [
        0
      ]
    }
  ],
  "textures": [
    {
      "sampler": 0,
      "source": 0
    },
    {
      "sampler": 0,
      "source": 1
    },
    {
      "sampler": 0,
      "source": 2
    }
  ]
}
