{
  "accessors": [
    {
      "bufferView": 2,
      "componentType": 5126,
      "count": 186,
      "max": [
        0.5449667572975159,
        0.44202059507369995,
        0.822110652923584
      ],
      "min": [
        -0.5449667572975159,
        -0.5289372801780701,
        0.5913889408111572
      ],
      "type": "VEC3"
    },
    {
      "bufferView": 2,
      "byteOffset": 2232,
      "componentType": 5126,
      "count": 186,
      "max": [
        0.9939091801643372,
        0.9790517687797546,
        1.0
      ],
      "min": [
        -0.9939091801643372,
        -0.9790517091751099,
        0.11020310968160629
      ],
      "type": "VEC3"
    },
    {
      "bufferView": 1,
      "componentType": 5126,
      "count": 186,
      "max": [
        0.47538137435913086,
        0.8720834255218506
      ],
      "min": [
        0.2747926712036133,
        0.20791921019554138
      ],
      "type": "VEC2"
    },
    {
      "bufferView": 1,
      "byteOffset": 1488,
      "componentType": 5126,
      "count": 186,
      "max": [
        0.47538137435913086,
        0.8720834255218506
      ],
      "min": [
        0.2747926712036133,
        0.20791921019554138
      ],
      "type": "VEC2"
    },
    {
      "bufferView": 0,
      "componentType": 5125,
      "count": 960,
      "type": "SCALAR"
    },
    {
      "bufferView": 2,
      "byteOffset": 4464,
      "componentType": 5126,
      "count": 2252,
      "max": [
        2.4921762943267822,
        2.4637677669525146,
        0.6884632110595703
      ],
      "min": [
        -2.4921765327453613,
        -2.287297010421753,
        -0.7446291446685791
      ],
      "type": "VEC3"
    },
    {
      "bufferView": 2,
      "byteOffset": 31488,
      "componentType": 5126,
      "count": 2252,
      "max": [
        0.9999809861183167,
        0.9956494569778442,
        0.9997805953025818
      ],
      "min": [
        -0.9999809861183167,
        -0.9956493973731995,
        -0.9999991655349731
      ],
      "type": "VEC3"
    },
    {
      "bufferView": 1,
      "byteOffset": 2976,
      "componentType": 5126,
      "count": 2252,
      "max": [
        0.8750001192092896,
        0.7592520713806152
      ],
      "min": [
        0.4999999701976776,
        -0.003223298816010356
      ],
      "type": "VEC2"
    },
    {
      "bufferView": 0,
      "byteOffset": 3840,
      "componentType": 5125,
      "count": 11520,
      "type": "SCALAR"
    }
  ],
  "asset": {
    "extras": {
      "author": "gaelinix (https://sketchfab.com/gaelinix)",
      "license": "CC-BY-4.0 (http://creativecommons.org/licenses/by/4.0/)",
      "source": "https://sketchfab.com/3d-models/super-mario-star-cd988ff787734dec955cd76e8acdf327",
      "title": "super mario star"
    },
    "generator": "Sketchfab-14.15.0",
    "version": "2.0"
  },
  "bufferViews": [
    {
      "buffer": 0,
      "byteLength": 49920,
      "name": "floatBufferViews",
      "target": 34963
    },
    {
      "buffer": 0,
      "byteLength": 20992,
      "byteOffset": 49920,
      "byteStride": 8,
      "name": "floatBufferViews",
      "target": 34962
    },
    {
      "buffer": 0,
      "byteLength": 58512,
      "byteOffset": 70912,
      "byteStride": 12,
      "name": "floatBufferViews",
      "target": 34962
    }
  ],
  "buffers": [
    {
      "byteLength": 129424,
      "uri": "scene.bin"
    }
  ],
  "images": [
    {
      "uri": "textures/Material.002_baseColor.png"
    }
  ],
  "materials": [
    {
      "doubleSided": true,
      "name": "Material.002",
      "pbrMetallicRoughness": {
        "baseColorTexture": {
          "index": 0
        },
        "metallicFactor": 0.0
      }
    },
    {
      "doubleSided": true,
      "emissiveFactor": [
        1.0,
        0.95164,
        0.00167327
      ],
      "name": "Material.001",
      "pbrMetallicRoughness": {
        "baseColorFactor": [
          1.0,
          0.943019,
          0.0185092,
          1.0
        ],
        "metallicFactor": 0.0,
        "roughnessFactor": 0.8470379672776536
      }
    }
  ],
  "meshes": [
    {
      "name": "Cube.002_Material.002_0",
      "primitives": [
        {
          "attributes": {
            "NORMAL": 1,
            "POSITION": 0,
            "TEXCOORD_0": 2,
            "TEXCOORD_1": 3
          },
          "indices": 4,
          "material": 0,
          "mode": 4
        }
      ]
    },
    {
      "name": "Cube.002_Material.001_0",
      "primitives": [
        {
          "attributes": {
            "NORMAL": 6,
            "POSITION": 5,
            "TEXCOORD_0": 7
          },
          "indices": 8,
          "material": 1,
          "mode": 4
        }
      ]
    }
  ],
  "nodes": [
    {
      "children": [
        1
      ],
      "matrix": [
        1.0,
        0.0,
        0.0,
        0.0,
        0.0,
        2.220446049250313e-16,
        -1.0,
        0.0,
        0.0,
        1.0,
        2.220446049250313e-16,
        0.0,
        0.0,
        0.0,
        0.0,
        1.0
      ],
      "name": "Sketchfab_model"
    },
    {
      "children": [
        2
      ],
      "matrix": [
        0.009999999776482582,
        0.0,
        0.0,
        0.0,
        0.0,
        0.0,
        0.009999999776482582,
        0.0,
        0.0,
        -0.009999999776482582,
        0.0,
        0.0,
        0.0,
        0.0,
        0.0,
        1.0
      ],
      "name": "b23e1119b3ed4fe6894975a831b8b0ce.fbx"
    },
    {
      "children": [
        3
      ],
      "name": "RootNode"
    },
    {
      "children": [
        4,
        5
      ],
      "matrix": [
        100.0,
        -2.2301061953159524e-14,
        -2.4273425816444445e-14,
        0.0,
        1.9942293162850365e-14,
        99.56494736722215,
        -9.317792429662969,
        0.0,
        2.6245790300770565e-14,
        9.317792429662969,
        99.56494736722215,
        0.0,
        0.0,
        0.0,
        -9.313225746154785e-08,
        1.0
      ],
      "name": "Cube.002"
    },
    {
      "mesh": 0,
      "name": "Cube.002_Material.002_0"
    },
    {
      "mesh": 1,
      "name": "Cube.002_Material.001_0"
    }
  ],
  "samplers": [
    {
      "magFilter": 9729,
      "minFilter": 9987,
      "wrapS": 10497,
      "wrapT": 10497
    }
  ],
  "scene": 0,
  "scenes": [
    {
      "name": "Sketchfab_Scene",
      "nodes": [
        0
      ]
    }
  ],
  "textures": [
    {
      "sampler": 0,
      "source": 0
    }
  ]
}
