{
  "accessors": [
    {
      "bufferView": 2,
      "componentType": 5126,
      "count": 24,
      "max": [
        4.0,
        0.0,
        10.0
      ],
      "min": [
        -4.0,
        -3.0,
        -3.0
      ],
      "type": "VEC3"
    },
    {
      "bufferView": 2,
      "byteOffset": 288,
      "componentType": 5126,
      "count": 24,
      "max": [
        1.0,
        1.0,
        1.0
      ],
      "min": [
        -1.0,
        -1.0,
        -1.0
      ],
      "type": "VEC3"
    },
    {
      "bufferView": 1,
      "componentType": 5126,
      "count": 24,
      "max": [
        0.90625,
        0.875
      ],
      "min": [
        0.078125,
        0.171875
      ],
      "type": "VEC2"
    },
    {
      "bufferView": 0,
      "componentType": 5125,
      "count": 36,
      "type": "SCALAR"
    },
    {
      "bufferView": 2,
      "byteOffset": 576,
      "componentType": 5126,
      "count": 24,
      "max": [
        4.0,
        0.0,
        10.0
      ],
      "min": [
        -4.0,
        -3.0,
        -3.0
      ],
      "type": "VEC3"
    },
    {
      "bufferView": 2,
      "byteOffset": 864,
      "componentType": 5126,
      "count": 24,
      "max": [
        1.0,
        1.0,
        1.0
      ],
      "min": [
        -1.0,
        -1.0,
        -1.0
      ],
      "type": "VEC3"
    },
    {
      "bufferView": 1,
      "byteOffset": 192,
      "componentType": 5126,
      "count": 24,
      "max": [
        0.90625,
        1.0
      ],
      "min": [
        0.5,
        0.265625
      ],
      "type": "VEC2"
    },
    {
      "bufferView": 0,
      "byteOffset": 144,
      "componentType": 5125,
      "count": 36,
      "type": "SCALAR"
    },
    {
      "bufferView": 2,
      "byteOffset": 1152,
      "componentType": 5126,
      "count": 24,
      "max": [
        -4.0,
        4.0,
        2.5
      ],
      "min": [
        -9.0,
        -5.0,
        -2.5
      ],
      "type": "VEC3"
    },
    {
      "bufferView": 2,
      "byteOffset": 1440,
      "componentType": 5126,
      "count": 24,
      "max": [
        1.0,
        1.0,
        1.0
      ],
      "min": [
        -1.0,
        -1.0,
        -1.0
      ],
      "type": "VEC3"
    },
    {
      "bufferView": 1,
      "byteOffset": 384,
      "componentType": 5126,
      "count": 24,
      "max": [
        0.828125,
        1.0
      ],
      "min": [
        0.5,
        0.125
      ],
      "type": "VEC2"
    },
    {
      "bufferView": 0,
      "byteOffset": 288,
      "componentType": 5125,
      "count": 36,
      "type": "SCALAR"
    },
    {
      "bufferView": 2,
      "byteOffset": 1728,
      "componentType": 5126,
      "count": 24,
      "max": [
        -4.0,
        0.0,
        2.5
      ],
      "min": [
        -9.0,
        -9.0,
        -2.5
      ],
      "type": "VEC3"
    },
    {
      "bufferView": 2,
      "byteOffset": 2016,
      "componentType": 5126,
      "count": 24,
      "max": [
        1.0,
        1.0,
        1.0
      ],
      "min": [
        -1.0,
        -1.0,
        -1.0
      ],
      "type": "VEC3"
    },
    {
      "bufferView": 1,
      "byteOffset": 576,
      "componentType": 5126,
      "count": 24,
      "max": [
        0.828125,
        1.0
      ],
      "min": [
        0.5,
        0.125
      ],
      "type": "VEC2"
    },
    {
      "bufferView": 0,
      "byteOffset": 432,
      "componentType": 5125,
      "count": 36,
      "type": "SCALAR"
    },
    {
      "bufferView": 2,
      "byteOffset": 2304,
      "componentType": 5126,
      "count": 24,
      "max": [
        8.0,
        15.0,
        8.0
      ],
      "min": [
        -8.0,
        -1.0,
        -8.0
      ],
      "type": "VEC3"
    },
    {
      "bufferView": 2,
      "byteOffset": 2592,
      "componentType": 5126,
      "count": 24,
      "max": [
        1.0,
        1.0,
        1.0
      ],
      "min": [
        -1.0,
        -1.0,
        -1.0
      ],
      "type": "VEC3"
    },
    {
      "bufferView": 1,
      "byteOffset": 768,
      "componentType": 5126,
      "count": 24,
      "max": [
        0.5,
        1.0
      ],
      "min": [
        0.0,
        0.25
      ],
      "type": "VEC2"
    },
    {
      "bufferView": 0,
      "byteOffset": 576,
      "componentType": 5125,
      "count": 36,
      "type": "SCALAR"
    }
  ],
  "asset": {
    "extras": {
      "author": "RonyCommitment (https://sketchfab.com/RonyCommitment)",
      "license": "CC-BY-4.0 (http://creativecommons.org/licenses/by/4.0/)",
      "source": "https://sketchfab.com/3d-models/minecraft-kirby-ea5659129e6e4e8887822bc0a4087951",
      "title": "Minecraft Kirby"
    },
    "generator": "Sketchfab-12.68.0",
    "version": "2.0"
  },
  "bufferViews": [
    {
      "buffer": 0,
      "byteLength": 720,
      "name": "floatBufferViews",
      "target": 34963
    },
    {
      "buffer": 0,
      "byteLength": 960,
      "byteOffset": 720,
      "byteStride": 8,
      "name": "floatBufferViews",
      "target": 34962
    },
    {
      "buffer": 0,
      "byteLength": 2880,
      "byteOffset": 1680,
      "byteStride": 12,
      "name": "floatBufferViews",
      "target": 34962
    }
  ],
  "buffers": [
    {
      "byteLength": 4560,
      "uri": "scene.bin"
    }
  ],
  "images": [
    {
      "uri": "textures/Minecraft_Kirby_baseColor.png"
    }
  ],
  "materials": [
    {
      "alphaCutoff": 0.05,
      "alphaMode": "MASK",
      "doubleSided": true,
      "name": "Minecraft_Kirby",
      "pbrMetallicRoughness": {
        "baseColorTexture": {
          "index": 0
        },
        "metallicFactor": 0.0
      }
    }
  ],
  "meshes": [
    {
      "name": "Object_0",
      "primitives": [
        {
          "attributes": {
            "NORMAL": 1,
            "POSITION": 0,
            "TEXCOORD_0": 2
          },
          "indices": 3,
          "material": 0,
          "mode": 4
        }
      ]
    },
    {
      "name": "Object_1",
      "primitives": [
        {
          "attributes": {
            "NORMAL": 5,
            "POSITION": 4,
            "TEXCOORD_0": 6
          },
          "indices": 7,
          "material": 0,
          "mode": 4
        }
      ]
    },
    {
      "name": "Object_2",
      "primitives": [
        {
          "attributes": {
            "NORMAL": 9,
            "POSITION": 8,
            "TEXCOORD_0": 10
          },
          "indices": 11,
          "material": 0,
          "mode": 4
        }
      ]
    },
    {
      "name": "Object_3",
      "primitives": [
        {
          "attributes": {
            "NORMAL": 13,
            "POSITION": 12,
            "TEXCOORD_0": 14
          },
          "indices": 15,
          "material": 0,
          "mode": 4
        }
      ]
    },
    {
      "name": "Object_4",
      "primitives": [
        {
          "attributes": {
            "NORMAL": 17,
            "POSITION": 16,
            "TEXCOORD_0": 18
          },
          "indices": 19,
          "material": 0,
          "mode": 4
        }
      ]
    }
  ],
  "nodes": [
    {
      "children": [
        1
      ],
      "matrix": [
        1.0,
        0.0,
        0.0,
        0.0,
        0.0,
        2.220446049250313e-16,
        -1.0,
        0.0,
        0.0,
        1.0,
        2.220446049250313e-16,
        0.0,
        0.0,
        0.0,
        0.0,
        1.0
      ],
      "name": "Sketchfab_model"
    },
    {
      "children": [
        2
      ],
      "name": "root"
    },
    {
      "children": [
        3,
        6,
        9,
        12,
        15
      ],
      "matrix": [
        1.0,
        0.0,
        0.0,
        0.0,
        0.0,
        2.220446049250313e-16,
        1.0,
        0.0,
        0.0,
        -1.0,
        2.220446049250313e-16,
        0.0,
        0.0,
        0.0,
        0.0,
        1.0
      ],
      "name": "GLTF_SceneRootNode"
    },
    {
      "children": [
        4
      ],
      "matrix": [
        1.0,
        0.0,
        0.0,
        0.0,
        0.0,
        1.0,
        0.0,
        0.0,
        0.0,
        0.0,
        1.0,
        0.0,
        -5.0,
        3.0,
        -3.0,
        1.0
      ],
      "name": "bone_1"
    },
    {
      "children": [
        5
      ],
      "name": "1ccd1fde-981f-7f3b-cece-aefd5615a728_0"
    },
    {
      "mesh": 0,
      "name": "Object_5"
    },
    {
      "children": [
        7
      ],
      "matrix": [
        1.0,
        0.0,
        0.0,
        0.0,
        0.0,
        1.0,
        0.0,
        0.0,
        0.0,
        0.0,
        1.0,
        0.0,
        5.0,
        3.0,
        -3.0,
        1.0
      ],
      "name": "bone_3"
    },
    {
      "children": [
        8
      ],
      "name": "eb55524b-b1a9-4802-31b2-5ea4bb97c290_2"
    },
    {
      "mesh": 1,
      "name": "Object_8"
    },
    {
      "children": [
        10
      ],
      "matrix": [
        1.0,
        0.0,
        0.0,
        0.0,
        0.0,
        1.0,
        0.0,
        0.0,
        0.0,
        0.0,
        1.0,
        0.0,
        6.0,
        10.5,
        0.0,
        1.0
      ],
      "name": "RightArm2_5"
    },
    {
      "children": [
        11
      ],
      "matrix": [
        0.0,
        -1.0,
        -0.0,
        0.0,
        1.0,
        0.0,
        0.0,
        0.0,
        0.0,
        -0.0,
        1.0,
        0.0,
        5.0,
        -6.5,
        0.0,
        1.0
      ],
      "name": "7a066b73-0101-6486-736b-47f543c3e681_4"
    },
    {
      "mesh": 2,
      "name": "Object_11"
    },
    {
      "children": [
        13
      ],
      "matrix": [
        1.0,
        0.0,
        0.0,
        0.0,
        0.0,
        1.0,
        0.0,
        0.0,
        0.0,
        0.0,
        1.0,
        0.0,
        -6.0,
        10.5,
        0.0,
        1.0
      ],
      "name": "group_7"
    },
    {
      "children": [
        14
      ],
      "matrix": [
        0.0,
        -1.0,
        -0.0,
        0.0,
        1.0,
        0.0,
        0.0,
        0.0,
        0.0,
        -0.0,
        1.0,
        0.0,
        0.0,
        -6.5,
        0.0,
        1.0
      ],
      "name": "589fe908-c13f-a519-75f8-c80eb94b96fd_6"
    },
    {
      "mesh": 3,
      "name": "Object_14"
    },
    {
      "children": [
        16
      ],
      "matrix": [
        1.0,
        0.0,
        0.0,
        0.0,
        0.0,
        1.0,
        0.0,
        0.0,
        0.0,
        0.0,
        1.0,
        0.0,
        0.0,
        8.0,
        0.0,
        1.0
      ],
      "name": "group_10"
    },
    {
      "children": [
        17
      ],
      "matrix": [
        1.0,
        0.0,
        0.0,
        0.0,
        0.0,
        1.0,
        0.0,
        0.0,
        0.0,
        0.0,
        1.0,
        0.0,
        0.0,
        -5.0,
        0.0,
        1.0
      ],
      "name": "e4e226e0-7477-9803-a274-0b628dc3a958_9"
    },
    {
      "mesh": 4,
      "name": "Object_17"
    }
  ],
  "samplers": [
    {
      "magFilter": 9728,
      "minFilter": 9728,
      "wrapS": 33071,
      "wrapT": 33071
    }
  ],
  "scene": 0,
  "scenes": [
    {
      "name": "Sketchfab_Scene",
      "nodes": [
        0
      ]
    }
  ],
  "textures": [
    {
      "sampler": 0,
      "source": 0
    }
  ]
}
