{
  "accessors": [
    {
      "bufferView": 2,
      "componentType": 5126,
      "count": 23146,
      "max": [
        1.7113417387008667,
        1.1638376712799072,
        5.023587703704834
      ],
      "min": [
        -1.7113417387008667,
        -2.7918169498443604,
        -1.1681462526321411
      ],
      "type": "VEC3"
    },
    {
      "bufferView": 2,
      "byteOffset": 277752,
      "componentType": 5126,
      "count": 23146,
      "max": [
        0.9999879598617554,
        0.9999864101409912,
        0.9999971389770508
      ],
      "min": [
        -0.9999879598617554,
        -0.9999806880950928,
        -0.9999006986618042
      ],
      "type": "VEC3"
    },
    {
      "bufferView": 3,
      "componentType": 5126,
      "count": 23146,
      "max": [
        1.0,
        0.999933123588562,
        0.9998894929885864,
        1.0
      ],
      "min": [
        -1.0,
        -0.9996592402458191,
        -0.9997051358222961,
        1.0
      ],
      "type": "VEC4"
    },
    {
      "bufferView": 1,
      "componentType": 5126,
      "count": 23146,
      "max": [
        0.9722065925598145,
        0.9996292591094971
      ],
      "min": [
        0.0003707830037456006,
        0.0003707830037456006
      ],
      "type": "VEC2"
    },
    {
      "bufferView": 1,
      "byteOffset": 185168,
      "componentType": 5126,
      "count": 23146,
      "max": [
        0.9722065925598145,
        0.9996292591094971
      ],
      "min": [
        0.0003707830037456006,
        0.0003707830037456006
      ],
      "type": "VEC2"
    },
    {
      "bufferView": 1,
      "byteOffset": 370336,
      "componentType": 5126,
      "count": 23146,
      "max": [
        0.9722065925598145,
        0.9996292591094971
      ],
      "min": [
        0.0003707830037456006,
        0.0003707830037456006
      ],
      "type": "VEC2"
    },
    {
      "bufferView": 0,
      "componentType": 5125,
      "count": 127224,
      "type": "SCALAR"
    },
    {
      "bufferView": 2,
      "byteOffset": 555504,
      "componentType": 5126,
      "count": 3968,
      "max": [
        0.27559715509414673,
        -1.662276029586792,
        4.14845085144043
      ],
      "min": [
        -0.27559715509414673,
        -1.8179099559783936,
        3.9929351806640625
      ],
      "type": "VEC3"
    },
    {
      "bufferView": 2,
      "byteOffset": 603120,
      "componentType": 5126,
      "count": 3968,
      "max": [
        0.9969094395637512,
        0.9976280927658081,
        0.9950488805770874
      ],
      "min": [
        -0.996909499168396,
        -0.9976310729980469,
        -0.99504554271698
      ],
      "type": "VEC3"
    },
    {
      "bufferView": 1,
      "byteOffset": 555504,
      "componentType": 5126,
      "count": 3968,
      "max": [
        1.000000238418579,
        1.0
      ],
      "min": [
        0.0,
        0.0
      ],
      "type": "VEC2"
    },
    {
      "bufferView": 0,
      "byteOffset": 508896,
      "componentType": 5125,
      "count": 5760,
      "type": "SCALAR"
    }
  ],
  "asset": {
    "extras": {
      "author": "Filip (https://sketchfab.com/filip.hans.nyberg)",
      "license": "CC-BY-4.0 (http://creativecommons.org/licenses/by/4.0/)",
      "source": "https://sketchfab.com/3d-models/free-gorilla-ad28003205884841a028e80edb4089ef",
      "title": "Free Gorilla"
    },
    "generator": "Sketchfab-12.68.0",
    "version": "2.0"
  },
  "bufferViews": [
    {
      "buffer": 0,
      "byteLength": 531936,
      "name": "floatBufferViews",
      "target": 34963
    },
    {
      "buffer": 0,
      "byteLength": 587248,
      "byteOffset": 531936,
      "byteStride": 8,
      "name": "floatBufferViews",
      "target": 34962
    },
    {
      "buffer": 0,
      "byteLength": 650736,
      "byteOffset": 1119184,
      "byteStride": 12,
      "name": "floatBufferViews",
      "target": 34962
    },
    {
      "buffer": 0,
      "byteLength": 370336,
      "byteOffset": 1769920,
      "byteStride": 16,
      "name": "floatBufferViews",
      "target": 34962
    }
  ],
  "buffers": [
    {
      "byteLength": 2140256,
      "uri": "scene.bin"
    }
  ],
  "images": [
    {
      "uri": "textures/Gorilla_baseColor.png"
    },
    {
      "uri": "textures/Gorilla_metallicRoughness.png"
    },
    {
      "uri": "textures/Gorilla_normal.png"
    }
  ],
  "materials": [
    {
      "doubleSided": true,
      "name": "Gorilla",
      "normalTexture": {
        "index": 2
      },
      "pbrMetallicRoughness": {
        "baseColorTexture": {
          "index": 0
        },
        "metallicRoughnessTexture": {
          "index": 1
        }
      }
    },
    {
      "doubleSided": true,
      "name": "Material.001",
      "pbrMetallicRoughness": {
        "baseColorFactor": [
          0.0,
          0.0,
          0.0,
          1.0
        ],
        "metallicFactor": 0.0
      }
    }
  ],
  "meshes": [
    {
      "name": "Cylinder.002_Gorilla_0",
      "primitives": [
        {
          "attributes": {
            "NORMAL": 1,
            "POSITION": 0,
            "TANGENT": 2,
            "TEXCOORD_0": 3,
            "TEXCOORD_1": 4,
            "TEXCOORD_2": 5
          },
          "indices": 6,
          "material": 0,
          "mode": 4
        }
      ]
    },
    {
      "name": "Sphere.001_Material.001_0",
      "primitives": [
        {
          "attributes": {
            "NORMAL": 8,
            "POSITION": 7,
            "TEXCOORD_0": 9
          },
          "indices": 10,
          "material": 1,
          "mode": 4
        }
      ]
    }
  ],
  "nodes": [
    {
      "children": [
        1
      ],
      "matrix": [
        1.0,
        0.0,
        0.0,
        0.0,
        0.0,
        2.220446049250313e-16,
        -1.0,
        0.0,
        0.0,
        1.0,
        2.220446049250313e-16,
        0.0,
        0.0,
        0.0,
        0.0,
        1.0
      ],
      "name": "Sketchfab_model"
    },
    {
      "children": [
        2
      ],
      "matrix": [
        1.0,
        0.0,
        0.0,
        0.0,
        0.0,
        0.0,
        1.0,
        0.0,
        0.0,
        -1.0,
        0.0,
        0.0,
        0.0,
        0.0,
        0.0,
        1.0
      ],
      "name": "GORILLA.fbx"
    },
    {
      "children": [
        3,
        5
      ],
      "name": "RootNode"
    },
    {
      "children": [
        4
      ],
      "matrix": [
        100.0,
        0.0,
        0.0,
        0.0,
        0.0,
        -1.629206793918314e-05,
        -99.99999999999868,
        0.0,
        0.0,
        99.99999999999868,
        -1.629206793918314e-05,
        0.0,
        0.0,
        0.0,
        0.0,
        1.0
      ],
      "name": "Cylinder.002"
    },
    {
      "mesh": 0,
      "name": "Cylinder.002_Gorilla_0"
    },
    {
      "children": [
        6
      ],
      "matrix": [
        100.0,
        0.0,
        0.0,
        0.0,
        -0.0,
        -1.629206793918314e-05,
        -99.99999999999868,
        0.0,
        0.0,
        99.99999999999868,
        -1.629206793918314e-05,
        0.0,
        -3.029786295049593e-16,
        4.379605770111084,
        7.34727668762207,
        1.0
      ],
      "name": "Sphere.001"
    },
    {
      "mesh": 1,
      "name": "Sphere.001_Material.001_0"
    }
  ],
  "samplers": [
    {
      "magFilter": 9729,
      "minFilter": 9987,
      "wrapS": 10497,
      "wrapT": 10497
    }
  ],
  "scene": 0,
  "scenes": [
    {
      "name": "Sketchfab_Scene",
      "nodes": [
        0
      ]
    }
  ],
  "textures": [
    {
      "sampler": 0,
      "source": 0
    },
    {
      "sampler": 0,
      "source": 1
    },
    {
      "sampler": 0,
      "source": 2
    }
  ]
}
