{
  "accessors": [
    {
      "bufferView": 2,
      "componentType": 5126,
      "count": 162,
      "max": [
        1.5797165632247925,
        3.1119227409362793,
        4.312989234924316
      ],
      "min": [
        -1.5797165632247925,
        -3.1119227409362793,
        -0.2753443717956543
      ],
      "type": "VEC3"
    },
    {
      "bufferView": 2,
      "byteOffset": 1944,
      "componentType": 5126,
      "count": 162,
      "max": [
        0.9672935605049133,
        0.9672935605049133,
        0.9672934412956238
      ],
      "min": [
        -0.9672935605049133,
        -0.9672935605049133,
        -0.9672932028770447
      ],
      "type": "VEC3"
    },
    {
      "bufferView": 1,
      "componentType": 5126,
      "count": 162,
      "max": [
        0.8750000596046448,
        1.0
      ],
      "min": [
        0.125,
        0.0
      ],
      "type": "VEC2"
    },
    {
      "bufferView": 0,
      "componentType": 5125,
      "count": 648,
      "type": "SCALAR"
    },
    {
      "bufferView": 2,
      "byteOffset": 3888,
      "componentType": 5126,
      "count": 65532,
      "max": [
        1.0225777626037598,
        1.0274299383163452,
        2.481332778930664
      ],
      "min": [
        -1.0543022155761719,
        -1.314229965209961,
        -0.361471951007843
      ],
      "type": "VEC3"
    },
    {
      "bufferView": 2,
      "byteOffset": 790272,
      "componentType": 5126,
      "count": 65532,
      "max": [
        0.999976396560669,
        0.9999940991401672,
        0.9999770522117615
      ],
      "min": [
        -0.999968409538269,
        -0.9999935030937195,
        -0.9999675750732422
      ],
      "type": "VEC3"
    },
    {
      "bufferView": 1,
      "byteOffset": 1296,
      "componentType": 5126,
      "count": 65532,
      "max": [
        1.000000238418579,
        1.000000238418579
      ],
      "min": [
        0.0,
        0.0
      ],
      "type": "VEC2"
    },
    {
      "bufferView": 0,
      "byteOffset": 2592,
      "componentType": 5125,
      "count": 381570,
      "type": "SCALAR"
    },
    {
      "bufferView": 2,
      "byteOffset": 1576656,
      "componentType": 5126,
      "count": 33050,
      "max": [
        0.9893187284469604,
        1.0149016380310059,
        1.8147649765014648
      ],
      "min": [
        -0.8825696110725403,
        -1.2048784494400024,
        -0.361471951007843
      ],
      "type": "VEC3"
    },
    {
      "bufferView": 2,
      "byteOffset": 1973256,
      "componentType": 5126,
      "count": 33050,
      "max": [
        0.9999193549156189,
        0.999782383441925,
        0.9999617338180542
      ],
      "min": [
        -0.9999759197235107,
        -0.9999836087226868,
        -0.9999811053276062
      ],
      "type": "VEC3"
    },
    {
      "bufferView": 1,
      "byteOffset": 525552,
      "componentType": 5126,
      "count": 33050,
      "max": [
        1.0000001192092896,
        0.9939025640487671
      ],
      "min": [
        0.0,
        0.0
      ],
      "type": "VEC2"
    },
    {
      "bufferView": 0,
      "byteOffset": 1528872,
      "componentType": 5125,
      "count": 192606,
      "type": "SCALAR"
    },
    {
      "bufferView": 2,
      "byteOffset": 2369856,
      "componentType": 5126,
      "count": 1580,
      "max": [
        0.45902523398399353,
        0.45902514457702637,
        2.1393184661865234
      ],
      "min": [
        -7.5428786277771,
        -14.8331880569458,
        -0.17600378394126892
      ],
      "type": "VEC3"
    },
    {
      "bufferView": 2,
      "byteOffset": 2388816,
      "componentType": 5126,
      "count": 1580,
      "max": [
        0.9998993277549744,
        0.9998993873596191,
        1.0
      ],
      "min": [
        -0.9998993277549744,
        -0.9998993873596191,
        -0.9992945790290833
      ],
      "type": "VEC3"
    },
    {
      "bufferView": 1,
      "byteOffset": 789952,
      "componentType": 5126,
      "count": 1580,
      "max": [
        1.0000001192092896,
        1.0
      ],
      "min": [
        0.0,
        0.31249988079071045
      ],
      "type": "VEC2"
    },
    {
      "bufferView": 0,
      "byteOffset": 2299296,
      "componentType": 5125,
      "count": 8064,
      "type": "SCALAR"
    },
    {
      "bufferView": 2,
      "byteOffset": 2407776,
      "componentType": 5126,
      "count": 4397,
      "max": [
        1.2788023948669434,
        2.260913848876953,
        16.53241539001465
      ],
      "min": [
        -12.596174240112305,
        -17.565176010131836,
        -1.6820836067199707
      ],
      "type": "VEC3"
    },
    {
      "bufferView": 2,
      "byteOffset": 2460540,
      "componentType": 5126,
      "count": 4397,
      "max": [
        0.9999049305915833,
        0.9996317028999329,
        0.9993206858634949
      ],
      "min": [
        -0.9999420642852783,
        -0.9999192953109741,
        -1.0
      ],
      "type": "VEC3"
    },
    {
      "bufferView": 1,
      "byteOffset": 802592,
      "componentType": 5126,
      "count": 4397,
      "max": [
        1.0000029802322388,
        1.0000001192092896
      ],
      "min": [
        -2.973822802232462e-06,
        0.0
      ],
      "type": "VEC2"
    },
    {
      "bufferView": 0,
      "byteOffset": 2331552,
      "componentType": 5125,
      "count": 22944,
      "type": "SCALAR"
    },
    {
      "bufferView": 2,
      "byteOffset": 2513304,
      "componentType": 5126,
      "count": 1260,
      "max": [
        3.0212621688842773,
        0.7473610043525696,
        6.4456963539123535
      ],
      "min": [
        -1.9511739015579224,
        -4.097589492797852,
        -0.18598181009292603
      ],
      "type": "VEC3"
    },
    {
      "bufferView": 2,
      "byteOffset": 2528424,
      "componentType": 5126,
      "count": 1260,
      "max": [
        0.9998648166656494,
        0.9983888864517212,
        0.9998797178268433
      ],
      "min": [
        -0.9992411732673645,
        -0.9999503493309021,
        -1.0
      ],
      "type": "VEC3"
    },
    {
      "bufferView": 1,
      "byteOffset": 837768,
      "componentType": 5126,
      "count": 1260,
      "max": [
        1.0000001192092896,
        1.0000001192092896
      ],
      "min": [
        0.0,
        0.0
      ],
      "type": "VEC2"
    },
    {
      "bufferView": 0,
      "byteOffset": 2423328,
      "componentType": 5125,
      "count": 7500,
      "type": "SCALAR"
    },
    {
      "bufferView": 2,
      "byteOffset": 2543544,
      "componentType": 5126,
      "count": 3478,
      "max": [
        3.121546983718872,
        3.244662284851074,
        8.022625923156738
      ],
      "min": [
        -1.793428659439087,
        -3.2280616760253906,
        -26.443946838378906
      ],
      "type": "VEC3"
    },
    {
      "bufferView": 2,
      "byteOffset": 2585280,
      "componentType": 5126,
      "count": 3478,
      "max": [
        1.0,
        1.0,
        0.8276236057281494
      ],
      "min": [
        -1.0,
        -1.0,
        -0.8276510834693909
      ],
      "type": "VEC3"
    },
    {
      "bufferView": 1,
      "byteOffset": 847848,
      "componentType": 5126,
      "count": 3478,
      "max": [
        1.0,
        1.0
      ],
      "min": [
        -8.940696716308594e-08,
        0.0
      ],
      "type": "VEC2"
    },
    {
      "bufferView": 0,
      "byteOffset": 2453328,
      "componentType": 5125,
      "count": 9666,
      "type": "SCALAR"
    },
    {
      "bufferView": 2,
      "byteOffset": 2627016,
      "componentType": 5126,
      "count": 1604,
      "max": [
        8.377334594726563,
        4.311193943023682,
        -0.07775223255157471
      ],
      "min": [
        3.2353243827819824,
        -2.31119441986084,
        -7.0305304527282715
      ],
      "type": "VEC3"
    },
    {
      "bufferView": 2,
      "byteOffset": 2646264,
      "componentType": 5126,
      "count": 1604,
      "max": [
        1.0,
        1.0,
        1.0
      ],
      "min": [
        -1.0,
        -1.0,
        -1.0
      ],
      "type": "VEC3"
    },
    {
      "bufferView": 1,
      "byteOffset": 875672,
      "componentType": 5126,
      "count": 1604,
      "max": [
        1.0,
        1.0
      ],
      "min": [
        0.0,
        0.0
      ],
      "type": "VEC2"
    },
    {
      "bufferView": 0,
      "byteOffset": 2491992,
      "componentType": 5125,
      "count": 2394,
      "type": "SCALAR"
    }
  ],
  "asset": {
    "extras": {
      "author": "TreDè (https://sketchfab.com/luigi_disilvestre)",
      "license": "CC-BY-4.0 (http://creativecommons.org/licenses/by/4.0/)",
      "source": "https://sketchfab.com/3d-models/free-aesthetic-bunk-bed-2ba8ccae518d4dc1be00dcdff0d4ac01",
      "title": "Free Aesthetic Bunk Bed"
    },
    "generator": "Sketchfab-15.5.0",
    "version": "2.0"
  },
  "bufferViews": [
    {
      "buffer": 0,
      "byteLength": 2501568,
      "name": "floatBufferViews",
      "target": 34963
    },
    {
      "buffer": 0,
      "byteLength": 888504,
      "byteOffset": 2501568,
      "byteStride": 8,
      "name": "floatBufferViews",
      "target": 34962
    },
    {
      "buffer": 0,
      "byteLength": 2665512,
      "byteOffset": 3390072,
      "byteStride": 12,
      "name": "floatBufferViews",
      "target": 34962
    }
  ],
  "buffers": [
    {
      "byteLength": 6055584,
      "uri": "scene.bin"
    }
  ],
  "extensionsUsed": [
    "KHR_materials_emissive_strength"
  ],
  "images": [
    {
      "uri": "textures/White_Wood_baseColor.png"
    }
  ],
  "materials": [
    {
      "doubleSided": true,
      "name": "White",
      "pbrMetallicRoughness": {
        "baseColorFactor": [
          0.8,
          0.8,
          0.8,
          1.0
        ],
        "metallicFactor": 0.0,
        "roughnessFactor": 0.8211145618000169
      }
    },
    {
      "doubleSided": true,
      "name": "Black",
      "pbrMetallicRoughness": {
        "baseColorFactor": [
          0.00206875,
          0.00206875,
          0.00206875,
          1.0
        ],
        "metallicFactor": 0.0,
        "roughnessFactor": 0.5
      }
    },
    {
      "doubleSided": true,
      "emissiveFactor": [
        0.5457244613701866,
        0.45078578283822346,
        0.15292615199615017
      ],
      "extensions": {
        "KHR_materials_emissive_strength": {
          "emissiveStrength": 3.0
        }
      },
      "name": "Emission",
      "pbrMetallicRoughness": {
        "baseColorFactor": [
          0.7991027380144088,
          0.5711248294648733,
          0.08865558628577294,
          1.0
        ],
        "metallicFactor": 0.0,
        "roughnessFactor": 0.17581361294426912
      }
    },
    {
      "doubleSided": true,
      "name": "Black_Metal",
      "pbrMetallicRoughness": {
        "baseColorFactor": [
          0.007454262321634595,
          0.007454262321634595,
          0.007454262321634595,
          1.0
        ],
        "roughnessFactor": 0.1
      }
    },
    {
      "doubleSided": true,
      "name": "White_Wood",
      "pbrMetallicRoughness": {
        "baseColorTexture": {
          "index": 0
        },
        "metallicFactor": 0.0,
        "roughnessFactor": 0.5
      }
    }
  ],
  "meshes": [
    {
      "name": "materass_White _0",
      "primitives": [
        {
          "attributes": {
            "NORMAL": 1,
            "POSITION": 0,
            "TEXCOORD_0": 2
          },
          "indices": 3,
          "material": 0,
          "mode": 4
        }
      ]
    },
    {
      "name": "blanket_Black_0",
      "primitives": [
        {
          "attributes": {
            "NORMAL": 5,
            "POSITION": 4,
            "TEXCOORD_0": 6
          },
          "indices": 7,
          "material": 1,
          "mode": 4
        }
      ]
    },
    {
      "name": "blanket_Black_0",
      "primitives": [
        {
          "attributes": {
            "NORMAL": 9,
            "POSITION": 8,
            "TEXCOORD_0": 10
          },
          "indices": 11,
          "material": 1,
          "mode": 4
        }
      ]
    },
    {
      "name": "lamps_Emission_0",
      "primitives": [
        {
          "attributes": {
            "NORMAL": 13,
            "POSITION": 12,
            "TEXCOORD_0": 14
          },
          "indices": 15,
          "material": 2,
          "mode": 4
        }
      ]
    },
    {
      "name": "lamps_Black Metal_0",
      "primitives": [
        {
          "attributes": {
            "NORMAL": 17,
            "POSITION": 16,
            "TEXCOORD_0": 18
          },
          "indices": 19,
          "material": 3,
          "mode": 4
        }
      ]
    },
    {
      "name": "pillow.004_Black_0",
      "primitives": [
        {
          "attributes": {
            "NORMAL": 21,
            "POSITION": 20,
            "TEXCOORD_0": 22
          },
          "indices": 23,
          "material": 1,
          "mode": 4
        }
      ]
    },
    {
      "name": "Metal_Black Metal_0",
      "primitives": [
        {
          "attributes": {
            "NORMAL": 25,
            "POSITION": 24,
            "TEXCOORD_0": 26
          },
          "indices": 27,
          "material": 3,
          "mode": 4
        }
      ]
    },
    {
      "name": "Plane_White Wood_0",
      "primitives": [
        {
          "attributes": {
            "NORMAL": 29,
            "POSITION": 28,
            "TEXCOORD_0": 30
          },
          "indices": 31,
          "material": 4,
          "mode": 4
        }
      ]
    }
  ],
  "nodes": [
    {
      "children": [
        1
      ],
      "matrix": [
        1.0,
        0.0,
        0.0,
        0.0,
        0.0,
        2.220446049250313e-16,
        -1.0,
        0.0,
        0.0,
        1.0,
        2.220446049250313e-16,
        0.0,
        0.0,
        0.0,
        0.0,
        1.0
      ],
      "name": "Sketchfab_model"
    },
    {
      "children": [
        2
      ],
      "matrix": [
        0.009999999776482582,
        0.0,
        0.0,
        0.0,
        0.0,
        0.0,
        0.009999999776482582,
        0.0,
        0.0,
        -0.009999999776482582,
        0.0,
        0.0,
        0.0,
        0.0,
        0.0,
        1.0
      ],
      "name": "Bunkbed.fbx"
    },
    {
      "children": [
        3,
        5,
        8,
        11,
        13,
        15
      ],
      "name": "RootNode"
    },
    {
      "children": [
        4
      ],
      "matrix": [
        100.0,
        0.0,
        0.0,
        0.0,
        0.0,
        -1.629206793918314e-05,
        -99.99999999999868,
        0.0,
        0.0,
        99.99999999999868,
        -1.629206793918314e-05,
        0.0,
        5.9604644775390625e-06,
        152.834228515625,
        0.0,
        1.0
      ],
      "name": "materass"
    },
    {
      "mesh": 0,
      "name": "materass_White _0"
    },
    {
      "children": [
        6,
        7
      ],
      "matrix": [
        185.4688077372791,
        -10.438718912959095,
        4.481703355534163,
        0.0,
        5.432694379010658,
        -28.76139379173867,
        -291.81481924680736,
        0.0,
        10.199018065925415,
        173.93148740913907,
        -16.952887679959847,
        0.0,
        4.165887832641602,
        183.49864196777344,
        -29.6546573638916,
        1.0
      ],
      "name": "blanket"
    },
    {
      "mesh": 1,
      "name": "blanket_Black_0"
    },
    {
      "mesh": 2,
      "name": "blanket_Black_0"
    },
    {
      "children": [
        9,
        10
      ],
      "matrix": [
        -25.806349510576208,
        9.450222132712335,
        -11.352348253883068,
        0.0,
        9.298571522894912,
        -7.362753362192763,
        -27.26676759093736,
        0.0,
        -11.476893171440423,
        -27.214579711378565,
        3.434786537971615,
        0.0,
        154.81912231445313,
        465.4219665527344,
        -236.65647888183594,
        1.0
      ],
      "name": "lamps"
    },
    {
      "mesh": 3,
      "name": "lamps_Emission_0"
    },
    {
      "mesh": 4,
      "name": "lamps_Black Metal_0"
    },
    {
      "children": [
        12
      ],
      "matrix": [
        36.12261034147394,
        -86.19474301601907,
        35.57559976332756,
        0.0,
        70.16915432533862,
        -4.378426510243116e-06,
        -71.24808615862459,
        0.0,
        61.41210632590981,
        50.69976603893171,
        60.48212066563751,
        0.0,
        -80.64241027832031,
        246.7194061279297,
        -241.19558715820313,
        1.0
      ],
      "name": "pillow.004"
    },
    {
      "mesh": 5,
      "name": "pillow.004_Black_0"
    },
    {
      "children": [
        14
      ],
      "matrix": [
        100.0,
        0.0,
        0.0,
        0.0,
        0.0,
        -1.629206793918314e-05,
        -99.99999999999868,
        0.0,
        0.0,
        17.993444442748785,
        -2.9315041932118443e-06,
        0.0,
        0.06905794143676758,
        526.1427612304688,
        1.3031599521636963,
        1.0
      ],
      "name": "Metal"
    },
    {
      "mesh": 6,
      "name": "Metal_Black Metal_0"
    },
    {
      "children": [
        16
      ],
      "matrix": [
        100.0,
        0.0,
        0.0,
        0.0,
        -0.0,
        -1.629206793918314e-05,
        -99.99999999999868,
        0.0,
        0.0,
        99.99999999999868,
        -1.629206793918314e-05,
        0.0,
        -500.0,
        700.0,
        100.0,
        1.0
      ],
      "name": "Plane"
    },
    {
      "mesh": 7,
      "name": "Plane_White Wood_0"
    }
  ],
  "samplers": [
    {
      "magFilter": 9729,
      "minFilter": 9987,
      "wrapS": 10497,
      "wrapT": 10497
    }
  ],
  "scene": 0,
  "scenes": [
    {
      "name": "Sketchfab_Scene",
      "nodes": [
        0
      ]
    }
  ],
  "textures": [
    {
      "sampler": 0,
      "source": 0
    }
  ]
}
