{
  "accessors": [
    {
      "bufferView": 2,
      "componentType": 5126,
      "count": 8593,
      "max": [
        0.28630921244621277,
        0.2863091230392456,
        0.2359512746334076
      ],
      "min": [
        -0.286309152841568,
        -0.286309152841568,
        0.017903249710798264
      ],
      "type": "VEC3"
    },
    {
      "bufferView": 2,
      "byteOffset": 103116,
      "componentType": 5126,
      "count": 8593,
      "max": [
        1.0,
        1.0,
        1.0
      ],
      "min": [
        -1.0,
        -1.0,
        -1.0
      ],
      "type": "VEC3"
    },
    {
      "bufferView": 1,
      "componentType": 5126,
      "count": 8593,
      "max": [
        0.9929007887840271,
        0.9929725527763367
      ],
      "min": [
        0.007027485873550177,
        0.007027485407888889
      ],
      "type": "VEC2"
    },
    {
      "bufferView": 0,
      "componentType": 5125,
      "count": 20136,
      "type": "SCALAR"
    },
    {
      "bufferView": 2,
      "byteOffset": 206232,
      "componentType": 5126,
      "count": 6480,
      "max": [
        0.28491291403770447,
        0.28491291403770447,
        0.24092207849025726
      ],
      "min": [
        -0.28491291403770447,
        -0.28491291403770447,
        0.015792984515428543
      ],
      "type": "VEC3"
    },
    {
      "bufferView": 2,
      "byteOffset": 283992,
      "componentType": 5126,
      "count": 6480,
      "max": [
        1.0,
        1.0,
        1.0
      ],
      "min": [
        -1.0,
        -1.0,
        -1.0
      ],
      "type": "VEC3"
    },
    {
      "bufferView": 1,
      "byteOffset": 68744,
      "componentType": 5126,
      "count": 6480,
      "max": [
        0.9263222813606262,
        0.9252283573150635
      ],
      "min": [
        0.007027435582131147,
        0.007027490064501762
      ],
      "type": "VEC2"
    },
    {
      "bufferView": 0,
      "byteOffset": 80544,
      "componentType": 5125,
      "count": 17586,
      "type": "SCALAR"
    },
    {
      "bufferView": 2,
      "byteOffset": 361752,
      "componentType": 5126,
      "count": 7008,
      "max": [
        0.7297096848487854,
        0.8425774574279785,
        0.17032243311405182
      ],
      "min": [
        -0.7297093272209167,
        -0.8425774574279785,
        0.000511854887008667
      ],
      "type": "VEC3"
    },
    {
      "bufferView": 2,
      "byteOffset": 445848,
      "componentType": 5126,
      "count": 7008,
      "max": [
        0.9999258518218994,
        0.9999258518218994,
        1.0
      ],
      "min": [
        -0.9999258518218994,
        -0.9999258518218994,
        -1.0
      ],
      "type": "VEC3"
    },
    {
      "bufferView": 1,
      "byteOffset": 120584,
      "componentType": 5126,
      "count": 7008,
      "max": [
        0.9070033431053162,
        0.9167807698249817
      ],
      "min": [
        0.0070274886675179005,
        0.007027473766356707
      ],
      "type": "VEC2"
    },
    {
      "bufferView": 0,
      "byteOffset": 150888,
      "componentType": 5125,
      "count": 23454,
      "type": "SCALAR"
    },
    {
      "bufferView": 2,
      "byteOffset": 529944,
      "componentType": 5126,
      "count": 5841,
      "max": [
        0.7118183970451355,
        0.8219183087348938,
        0.0807587206363678
      ],
      "min": [
        -0.7118180394172668,
        -0.8219183087348938,
        0.000511854887008667
      ],
      "type": "VEC3"
    },
    {
      "bufferView": 2,
      "byteOffset": 600036,
      "componentType": 5126,
      "count": 5841,
      "max": [
        1.0,
        1.0,
        1.0
      ],
      "min": [
        -1.0,
        -1.0,
        -1.0
      ],
      "type": "VEC3"
    },
    {
      "bufferView": 1,
      "byteOffset": 176648,
      "componentType": 5126,
      "count": 5841,
      "max": [
        0.8840523958206177,
        0.8944646716117859
      ],
      "min": [
        0.009194419719278812,
        0.007027499843388796
      ],
      "type": "VEC2"
    },
    {
      "bufferView": 0,
      "byteOffset": 244704,
      "componentType": 5125,
      "count": 17160,
      "type": "SCALAR"
    }
  ],
  "asset": {
    "extras": {
      "author": "Black Snow (https://sketchfab.com/BlackSnow02)",
      "license": "CC-BY-4.0 (http://creativecommons.org/licenses/by/4.0/)",
      "source": "https://sketchfab.com/3d-models/led-ceiling-light-c20dd1e9108a418e8afa5f27d4c611bd",
      "title": "LED Ceiling Light"
    },
    "generator": "Sketchfab-15.30.0",
    "version": "2.0"
  },
  "bufferViews": [
    {
      "buffer": 0,
      "byteLength": 313344,
      "name": "floatBufferViews",
      "target": 34963
    },
    {
      "buffer": 0,
      "byteLength": 223376,
      "byteOffset": 313344,
      "byteStride": 8,
      "name": "floatBufferViews",
      "target": 34962
    },
    {
      "buffer": 0,
      "byteLength": 670128,
      "byteOffset": 536720,
      "byteStride": 12,
      "name": "floatBufferViews",
      "target": 34962
    }
  ],
  "buffers": [
    {
      "byteLength": 1206848,
      "uri": "scene.bin"
    }
  ],
  "extensionsUsed": [
    "KHR_materials_specular",
    "KHR_materials_emissive_strength"
  ],
  "materials": [
    {
      "doubleSided": true,
      "name": "metal2",
      "pbrMetallicRoughness": {
        "baseColorFactor": [
          0.157434,
          0.157434,
          0.157434,
          1.0
        ],
        "roughnessFactor": 0.2118101693262303
      }
    },
    {
      "doubleSided": true,
      "name": "metal3",
      "pbrMetallicRoughness": {
        "baseColorFactor": [
          0.318538,
          0.318538,
          0.318538,
          1.0
        ],
        "metallicFactor": 0.1569528592849045,
        "roughnessFactor": 0.12647657592861233
      }
    },
    {
      "doubleSided": true,
      "extensions": {
        "KHR_materials_specular": {
          "specularColorFactor": [
            1.0,
            1.0,
            1.0
          ],
          "specularFactor": 0.5043824895466348
        }
      },
      "name": "metal1",
      "pbrMetallicRoughness": {
        "baseColorFactor": [
          0.184469,
          0.184469,
          0.184469,
          1.0
        ],
        "roughnessFactor": 0.07771452255854494
      }
    },
    {
      "doubleSided": true,
      "emissiveFactor": [
        1.0,
        1.0,
        1.0
      ],
      "extensions": {
        "KHR_materials_emissive_strength": {
          "emissiveStrength": 2.0
        }
      },
      "name": "light",
      "pbrMetallicRoughness": {
        "baseColorFactor": [
          0.8,
          0.8,
          0.8,
          1.0
        ],
        "metallicFactor": 0.0,
        "roughnessFactor": 0.8211145618000169
      }
    }
  ],
  "meshes": [
    {
      "name": " Ceiling Light_metal2_0",
      "primitives": [
        {
          "attributes": {
            "NORMAL": 1,
            "POSITION": 0,
            "TEXCOORD_0": 2
          },
          "indices": 3,
          "material": 0,
          "mode": 4
        }
      ]
    },
    {
      "name": " Ceiling Light_metal3_0",
      "primitives": [
        {
          "attributes": {
            "NORMAL": 5,
            "POSITION": 4,
            "TEXCOORD_0": 6
          },
          "indices": 7,
          "material": 1,
          "mode": 4
        }
      ]
    },
    {
      "name": " Ceiling Light_metal1_0",
      "primitives": [
        {
          "attributes": {
            "NORMAL": 9,
            "POSITION": 8,
            "TEXCOORD_0": 10
          },
          "indices": 11,
          "material": 2,
          "mode": 4
        }
      ]
    },
    {
      "name": " Ceiling Light_light_0",
      "primitives": [
        {
          "attributes": {
            "NORMAL": 13,
            "POSITION": 12,
            "TEXCOORD_0": 14
          },
          "indices": 15,
          "material": 3,
          "mode": 4
        }
      ]
    }
  ],
  "nodes": [
    {
      "children": [
        1
      ],
      "matrix": [
        1.0,
        0.0,
        0.0,
        0.0,
        0.0,
        2.220446049250313e-16,
        -1.0,
        0.0,
        0.0,
        1.0,
        2.220446049250313e-16,
        0.0,
        0.0,
        0.0,
        0.0,
        1.0
      ],
      "name": "Sketchfab_model"
    },
    {
      "children": [
        2
      ],
      "matrix": [
        0.009999999776482582,
        0.0,
        0.0,
        0.0,
        0.0,
        0.0,
        0.009999999776482582,
        0.0,
        0.0,
        -0.009999999776482582,
        0.0,
        0.0,
        0.0,
        0.0,
        0.0,
        1.0
      ],
      "name": "LED Ceiling Light.fbx"
    },
    {
      "children": [
        3
      ],
      "name": "RootNode"
    },
    {
      "children": [
        4,
        5,
        6,
        7
      ],
      "matrix": [
        100.0,
        0.0,
        0.0,
        0.0,
        0.0,
        -1.629206793918314e-05,
        -99.99999999999868,
        0.0,
        0.0,
        99.99999999999868,
        -1.629206793918314e-05,
        0.0,
        0.0,
        0.0,
        0.0,
        1.0
      ],
      "name": " Ceiling Light"
    },
    {
      "mesh": 0,
      "name": " Ceiling Light_metal2_0"
    },
    {
      "mesh": 1,
      "name": " Ceiling Light_metal3_0"
    },
    {
      "mesh": 2,
      "name": " Ceiling Light_metal1_0"
    },
    {
      "mesh": 3,
      "name": " Ceiling Light_light_0"
    }
  ],
  "scene": 0,
  "scenes": [
    {
      "name": "Sketchfab_Scene",
      "nodes": [
        0
      ]
    }
  ]
}
