{
  "accessors": [
    {
      "bufferView": 2,
      "componentType": 5126,
      "count": 65532,
      "max": [
        4.605832099914551,
        1.3405070304870605,
        2.2928409576416016
      ],
      "min": [
        -1.1192840337753296,
        -3.239453077316284,
        -2.655261993408203
      ],
      "type": "VEC3"
    },
    {
      "bufferView": 2,
      "byteOffset": 786384,
      "componentType": 5126,
      "count": 65532,
      "max": [
        0.9999762773513794,
        0.9999896287918091,
        0.9999917149543762
      ],
      "min": [
        -0.9999405145645142,
        -0.9998942017555237,
        -0.9995957016944885
      ],
      "type": "VEC3"
    },
    {
      "bufferView": 1,
      "componentType": 5126,
      "count": 65532,
      "max": [
        1.0,
        1.0
      ],
      "min": [
        0.0,
        0.0
      ],
      "type": "VEC2"
    },
    {
      "bufferView": 0,
      "componentType": 5125,
      "count": 83277,
      "type": "SCALAR"
    },
    {
      "bufferView": 2,
      "byteOffset": 1572768,
      "componentType": 5126,
      "count": 65533,
      "max": [
        4.430274963378906,
        0.5149527788162231,
        2.366821050643921
      ],
      "min": [
        -1.0258389711380005,
        -3.313441038131714,
        -2.5014560222625732
      ],
      "type": "VEC3"
    },
    {
      "bufferView": 2,
      "byteOffset": 2359164,
      "componentType": 5126,
      "count": 65533,
      "max": [
        0.9999414086341858,
        0.9999619722366333,
        0.9995285272598267
      ],
      "min": [
        -0.9999709129333496,
        -0.9999920725822449,
        -0.9999812245368958
      ],
      "type": "VEC3"
    },
    {
      "bufferView": 1,
      "byteOffset": 524256,
      "componentType": 5126,
      "count": 65533,
      "max": [
        1.0,
        1.0
      ],
      "min": [
        0.0,
        0.0
      ],
      "type": "VEC2"
    },
    {
      "bufferView": 0,
      "byteOffset": 333108,
      "componentType": 5125,
      "count": 70209,
      "type": "SCALAR"
    },
    {
      "bufferView": 2,
      "byteOffset": 3145560,
      "componentType": 5126,
      "count": 65533,
      "max": [
        4.531950950622559,
        1.2665560245513916,
        2.288114070892334
      ],
      "min": [
        -1.1932569742202759,
        -3.23482608795166,
        -2.5813100337982178
      ],
      "type": "VEC3"
    },
    {
      "bufferView": 2,
      "byteOffset": 3931956,
      "componentType": 5126,
      "count": 65533,
      "max": [
        0.9999194145202637,
        0.9998999834060669,
        0.9995920658111572
      ],
      "min": [
        -0.9999771118164063,
        -0.9999879002571106,
        -0.9999892711639404
      ],
      "type": "VEC3"
    },
    {
      "bufferView": 1,
      "byteOffset": 1048520,
      "componentType": 5126,
      "count": 65533,
      "max": [
        1.0,
        1.0
      ],
      "min": [
        0.0,
        0.0
      ],
      "type": "VEC2"
    },
    {
      "bufferView": 0,
      "byteOffset": 613944,
      "componentType": 5125,
      "count": 87999,
      "type": "SCALAR"
    },
    {
      "bufferView": 2,
      "byteOffset": 4718352,
      "componentType": 5126,
      "count": 59571,
      "max": [
        3.8634231090545654,
        0.15658360719680786,
        2.2928409576416016
      ],
      "min": [
        -1.1932569742202759,
        -3.239453077316284,
        -1.1620980501174927
      ],
      "type": "VEC3"
    },
    {
      "bufferView": 2,
      "byteOffset": 5433204,
      "componentType": 5126,
      "count": 59571,
      "max": [
        0.9999710917472839,
        0.9999917149543762,
        0.9999862909317017
      ],
      "min": [
        -0.9999423027038574,
        -0.9999611973762512,
        -0.9995274543762207
      ],
      "type": "VEC3"
    },
    {
      "bufferView": 1,
      "byteOffset": 1572784,
      "componentType": 5126,
      "count": 59571,
      "max": [
        1.0,
        1.0
      ],
      "min": [
        0.0,
        0.0
      ],
      "type": "VEC2"
    },
    {
      "bufferView": 0,
      "byteOffset": 965940,
      "componentType": 5125,
      "count": 59571,
      "type": "SCALAR"
    },
    {
      "bufferView": 2,
      "byteOffset": 6148056,
      "componentType": 5126,
      "count": 3468,
      "max": [
        4.531950950622559,
        0.17528240382671356,
        0.7467972040176392
      ],
      "min": [
        -0.5021176934242249,
        -1.711995005607605,
        -1.25313401222229
      ],
      "type": "VEC3"
    },
    {
      "bufferView": 2,
      "byteOffset": 6189672,
      "componentType": 5126,
      "count": 3468,
      "max": [
        0.9998340010643005,
        0.9997063279151917,
        0.9995920658111572
      ],
      "min": [
        -0.9999771118164063,
        -0.999922513961792,
        -0.999020516872406
      ],
      "type": "VEC3"
    },
    {
      "bufferView": 1,
      "byteOffset": 2049352,
      "componentType": 5126,
      "count": 3468,
      "max": [
        1.0,
        1.0
      ],
      "min": [
        0.0,
        0.0
      ],
      "type": "VEC2"
    },
    {
      "bufferView": 0,
      "byteOffset": 1204224,
      "componentType": 5125,
      "count": 18432,
      "type": "SCALAR"
    },
    {
      "bufferView": 2,
      "byteOffset": 6231288,
      "componentType": 5126,
      "count": 1700,
      "max": [
        3.984088897705078,
        1.2665560245513916,
        1.7251960039138794
      ],
      "min": [
        0.03207920864224434,
        -2.955359935760498,
        -2.5813100337982178
      ],
      "type": "VEC3"
    },
    {
      "bufferView": 2,
      "byteOffset": 6251688,
      "componentType": 5126,
      "count": 1700,
      "max": [
        0.9989778995513916,
        0.9993396997451782,
        0.9993760585784912
      ],
      "min": [
        -0.9989778995513916,
        -0.9993396997451782,
        -0.9993760585784912
      ],
      "type": "VEC3"
    },
    {
      "bufferView": 1,
      "byteOffset": 2077096,
      "componentType": 5126,
      "count": 1700,
      "max": [
        1.0,
        1.0
      ],
      "min": [
        0.0,
        0.0
      ],
      "type": "VEC2"
    },
    {
      "bufferView": 0,
      "byteOffset": 1277952,
      "componentType": 5125,
      "count": 9216,
      "type": "SCALAR"
    },
    {
      "bufferView": 2,
      "byteOffset": 6272088,
      "componentType": 5126,
      "count": 65532,
      "max": [
        2.551837921142578,
        -0.9729956984519958,
        2.366821050643921
      ],
      "min": [
        -1.0258389711380005,
        -3.313441038131714,
        0.024477830156683922
      ],
      "type": "VEC3"
    },
    {
      "bufferView": 2,
      "byteOffset": 7058472,
      "componentType": 5126,
      "count": 65532,
      "max": [
        0.9999414086341858,
        0.9998999834060669,
        0.9995285272598267
      ],
      "min": [
        -0.9999700784683228,
        -0.9999879002571106,
        -0.9999892711639404
      ],
      "type": "VEC3"
    },
    {
      "bufferView": 1,
      "byteOffset": 2090696,
      "componentType": 5126,
      "count": 65532,
      "max": [
        1.0,
        0.9997146129608154
      ],
      "min": [
        0.0,
        0.0
      ],
      "type": "VEC2"
    },
    {
      "bufferView": 0,
      "byteOffset": 1314816,
      "componentType": 5125,
      "count": 65532,
      "type": "SCALAR"
    },
    {
      "bufferView": 2,
      "byteOffset": 7844856,
      "componentType": 5126,
      "count": 57348,
      "max": [
        2.551837921142578,
        -0.9729956984519958,
        2.366821050643921
      ],
      "min": [
        -1.1932569742202759,
        -3.313441038131714,
        0.024477830156683922
      ],
      "type": "VEC3"
    },
    {
      "bufferView": 2,
      "byteOffset": 8533032,
      "componentType": 5126,
      "count": 57348,
      "max": [
        0.9999387860298157,
        0.9999136924743652,
        0.9993237257003784
      ],
      "min": [
        -0.9999709129333496,
        -0.9999920725822449,
        -0.9999812245368958
      ],
      "type": "VEC3"
    },
    {
      "bufferView": 1,
      "byteOffset": 2614952,
      "componentType": 5126,
      "count": 57348,
      "max": [
        0.9999998807907104,
        1.0
      ],
      "min": [
        0.0,
        0.0
      ],
      "type": "VEC2"
    },
    {
      "bufferView": 0,
      "byteOffset": 1576944,
      "componentType": 5125,
      "count": 57348,
      "type": "SCALAR"
    }
  ],
  "asset": {
    "extras": {
      "author": "El Alquimista𓁞 (https://sketchfab.com/ElCanciller)",
      "license": "CC-BY-NC-4.0 (http://creativecommons.org/licenses/by-nc/4.0/)",
      "source": "https://sketchfab.com/3d-models/kirby-180c0f5600e44517a431c9b488a548e1",
      "title": "Kirby"
    },
    "generator": "Sketchfab-12.66.0",
    "version": "2.0"
  },
  "bufferViews": [
    {
      "buffer": 0,
      "byteLength": 1806336,
      "name": "floatBufferViews",
      "target": 34963
    },
    {
      "buffer": 0,
      "byteLength": 3073736,
      "byteOffset": 1806336,
      "byteStride": 8,
      "name": "floatBufferViews",
      "target": 34962
    },
    {
      "buffer": 0,
      "byteLength": 9221208,
      "byteOffset": 4880072,
      "byteStride": 12,
      "name": "floatBufferViews",
      "target": 34962
    }
  ],
  "buffers": [
    {
      "byteLength": 14101280,
      "uri": "scene.bin"
    }
  ],
  "extensionsUsed": [
    "KHR_materials_unlit"
  ],
  "images": [
    {
      "uri": "textures/manos_baseColor.png"
    },
    {
      "uri": "textures/Material_baseColor.jpeg"
    },
    {
      "uri": "textures/black_baseColor.png"
    }
  ],
  "materials": [
    {
      "doubleSided": true,
      "extensions": {
        "KHR_materials_unlit": {}
      },
      "name": "manos",
      "pbrMetallicRoughness": {
        "baseColorTexture": {
          "index": 0
        },
        "metallicFactor": 0.0
      }
    },
    {
      "doubleSided": true,
      "extensions": {
        "KHR_materials_unlit": {}
      },
      "name": "Material",
      "pbrMetallicRoughness": {
        "baseColorTexture": {
          "index": 1
        },
        "metallicFactor": 0.0
      }
    },
    {
      "doubleSided": true,
      "extensions": {
        "KHR_materials_unlit": {}
      },
      "name": "shoes",
      "pbrMetallicRoughness": {
        "baseColorFactor": [
          0.5845112906242633,
          0.08220034975461543,
          0.08220034975461543,
          1.0
        ],
        "metallicFactor": 0.0
      }
    },
    {
      "extensions": {
        "KHR_materials_unlit": {}
      },
      "name": "black",
      "pbrMetallicRoughness": {
        "baseColorFactor": [
          0.17802085876464843,
          0.17802085876464843,
          0.17802085876464843,
          1.0
        ],
        "baseColorTexture": {
          "index": 2
        },
        "metallicFactor": 0.0
      }
    }
  ],
  "meshes": [
    {
      "name": "black-material",
      "primitives": [
        {
          "attributes": {
            "NORMAL": 1,
            "POSITION": 0,
            "TEXCOORD_0": 2
          },
          "indices": 3,
          "material": 3,
          "mode": 4
        }
      ]
    },
    {
      "name": "black-material",
      "primitives": [
        {
          "attributes": {
            "NORMAL": 5,
            "POSITION": 4,
            "TEXCOORD_0": 6
          },
          "indices": 7,
          "material": 3,
          "mode": 4
        }
      ]
    },
    {
      "name": "black-material",
      "primitives": [
        {
          "attributes": {
            "NORMAL": 9,
            "POSITION": 8,
            "TEXCOORD_0": 10
          },
          "indices": 11,
          "material": 3,
          "mode": 4
        }
      ]
    },
    {
      "name": "black-material",
      "primitives": [
        {
          "attributes": {
            "NORMAL": 13,
            "POSITION": 12,
            "TEXCOORD_0": 14
          },
          "indices": 15,
          "material": 3,
          "mode": 4
        }
      ]
    },
    {
      "name": "manos-material",
      "primitives": [
        {
          "attributes": {
            "NORMAL": 17,
            "POSITION": 16,
            "TEXCOORD_0": 18
          },
          "indices": 19,
          "material": 0,
          "mode": 4
        }
      ]
    },
    {
      "name": "Material-material",
      "primitives": [
        {
          "attributes": {
            "NORMAL": 21,
            "POSITION": 20,
            "TEXCOORD_0": 22
          },
          "indices": 23,
          "material": 1,
          "mode": 4
        }
      ]
    },
    {
      "name": "shoes-material",
      "primitives": [
        {
          "attributes": {
            "NORMAL": 25,
            "POSITION": 24,
            "TEXCOORD_0": 26
          },
          "indices": 27,
          "material": 2,
          "mode": 4
        }
      ]
    },
    {
      "name": "shoes-material",
      "primitives": [
        {
          "attributes": {
            "NORMAL": 29,
            "POSITION": 28,
            "TEXCOORD_0": 30
          },
          "indices": 31,
          "material": 2,
          "mode": 4
        }
      ]
    }
  ],
  "nodes": [
    {
      "children": [
        1
      ],
      "matrix": [
        1.0,
        0.0,
        0.0,
        0.0,
        0.0,
        2.220446049250313e-16,
        -1.0,
        0.0,
        0.0,
        1.0,
        2.220446049250313e-16,
        0.0,
        0.0,
        0.0,
        0.0,
        1.0
      ],
      "name": "Sketchfab_model"
    },
    {
      "children": [
        2,
        7,
        12,
        14
      ],
      "name": "Collada visual scene group"
    },
    {
      "children": [
        3,
        4,
        5,
        6
      ],
      "matrix": [
        0.3898571,
        -0.04463075,
        0.1632309,
        0.0,
        -0.1171579,
        -0.3228776,
        0.1915359,
        0.0,
        0.1038947,
        -0.2206952,
        -0.3084824,
        0.0,
        -0.8373215,
        -0.2774861,
        -0.2980961,
        1.0
      ],
      "name": "kirby_001"
    },
    {
      "mesh": 0,
      "name": "black-material"
    },
    {
      "mesh": 1,
      "name": "black-material"
    },
    {
      "mesh": 2,
      "name": "black-material"
    },
    {
      "mesh": 3,
      "name": "black-material"
    },
    {
      "children": [
        8,
        9,
        10,
        11
      ],
      "matrix": [
        0.3898571,
        -0.04463075,
        0.1632309,
        0.0,
        -0.1171579,
        -0.3228776,
        0.1915359,
        0.0,
        0.1038947,
        -0.2206952,
        -0.3084824,
        0.0,
        -0.8373215,
        -0.2774861,
        -0.2980961,
        1.0
      ],
      "name": "kirby"
    },
    {
      "mesh": 4,
      "name": "manos-material"
    },
    {
      "mesh": 5,
      "name": "Material-material"
    },
    {
      "mesh": 6,
      "name": "shoes-material"
    },
    {
      "mesh": 7,
      "name": "shoes-material"
    },
    {
      "children": [
        13
      ],
      "matrix": [
        -0.2908646,
        0.9551712,
        -0.05518906,
        0.0,
        -0.7711008,
        -0.1998834,
        0.6045247,
        0.0,
        0.5663932,
        0.2183912,
        0.7946723,
        0.0,
        4.076245,
        1.005454,
        5.903862,
        1.0
      ],
      "name": "Lamp"
    },
    {
      "name": "Lamp"
    },
    {
      "children": [
        15
      ],
      "matrix": [
        0.6859207,
        0.7276763,
        0.0,
        0.0,
        -0.3240135,
        0.3054208,
        0.8953956,
        0.0,
        0.6515582,
        -0.6141704,
        0.4452714,
        0.0,
        7.481132,
        -6.50764,
        5.343665,
        1.0
      ],
      "name": "Camera"
    },
    {
      "name": "Camera-camera"
    }
  ],
  "samplers": [
    {
      "magFilter": 9729,
      "minFilter": 9987,
      "wrapS": 10497,
      "wrapT": 10497
    }
  ],
  "scene": 0,
  "scenes": [
    {
      "name": "Sketchfab_Scene",
      "nodes": [
        0
      ]
    }
  ],
  "textures": [
    {
      "sampler": 0,
      "source": 0
    },
    {
      "sampler": 0,
      "source": 1
    },
    {
      "sampler": 0,
      "source": 2
    }
  ]
}
