{
  "accessors": [
    {
      "bufferView": 2,
      "componentType": 5126,
      "count": 1331,
      "max": [
        1.1607723236083984,
        0.06664734333753586,
        0.39592814445495605
      ],
      "min": [
        -1.1607723236083984,
        -0.06664734333753586,
        -0.39592814445495605
      ],
      "type": "VEC3"
    },
    {
      "bufferView": 2,
      "byteOffset": 15972,
      "componentType": 5126,
      "count": 1331,
      "max": [
        1.0,
        1.0,
        1.0
      ],
      "min": [
        -1.0,
        -1.0,
        -1.0
      ],
      "type": "VEC3"
    },
    {
      "bufferView": 3,
      "componentType": 5126,
      "count": 1331,
      "max": [
        1.0,
        0.9999940991401672,
        0.9999999403953552,
        1.0
      ],
      "min": [
        -0.9999920725822449,
        -0.9999970197677612,
        -1.0,
        -1.0
      ],
      "type": "VEC4"
    },
    {
      "bufferView": 1,
      "componentType": 5126,
      "count": 1331,
      "max": [
        0.985824704170227,
        0.987356424331665
      ],
      "min": [
        0.016777783632278442,
        0.011972427368164063
      ],
      "type": "VEC2"
    },
    {
      "bufferView": 0,
      "componentType": 5125,
      "count": 5418,
      "type": "SCALAR"
    }
  ],
  "asset": {
    "extras": {
      "author": "FFeller (https://sketchfab.com/FFeller)",
      "license": "CC-BY-4.0 (http://creativecommons.org/licenses/by/4.0/)",
      "source": "https://sketchfab.com/3d-models/welded-cordon-0241f866b4be4210a093f0cbd05636a1",
      "title": "Welded cordon"
    },
    "generator": "Sketchfab-12.67.0",
    "version": "2.0"
  },
  "bufferViews": [
    {
      "buffer": 0,
      "byteLength": 21672,
      "name": "floatBufferViews",
      "target": 34963
    },
    {
      "buffer": 0,
      "byteLength": 10648,
      "byteOffset": 21672,
      "byteStride": 8,
      "name": "floatBufferViews",
      "target": 34962
    },
    {
      "buffer": 0,
      "byteLength": 31944,
      "byteOffset": 32320,
      "byteStride": 12,
      "name": "floatBufferViews",
      "target": 34962
    },
    {
      "buffer": 0,
      "byteLength": 21296,
      "byteOffset": 64264,
      "byteStride": 16,
      "name": "floatBufferViews",
      "target": 34962
    }
  ],
  "buffers": [
    {
      "byteLength": 85560,
      "uri": "scene.bin"
    }
  ],
  "images": [
    {
      "uri": "textures/Truss_truss_baseColor.png"
    },
    {
      "uri": "textures/Truss_truss_metallicRoughness.png"
    },
    {
      "uri": "textures/Truss_truss_normal.png"
    }
  ],
  "materials": [
    {
      "doubleSided": true,
      "name": "Truss_truss",
      "normalTexture": {
        "index": 2
      },
      "pbrMetallicRoughness": {
        "baseColorTexture": {
          "index": 0
        },
        "metallicRoughnessTexture": {
          "index": 1
        }
      }
    }
  ],
  "meshes": [
    {
      "name": "cordon_Truss_truss_0",
      "primitives": [
        {
          "attributes": {
            "NORMAL": 1,
            "POSITION": 0,
            "TANGENT": 2,
            "TEXCOORD_0": 3
          },
          "indices": 4,
          "material": 0,
          "mode": 4
        }
      ]
    }
  ],
  "nodes": [
    {
      "children": [
        1
      ],
      "matrix": [
        1.0,
        0.0,
        0.0,
        0.0,
        0.0,
        2.220446049250313e-16,
        -1.0,
        0.0,
        0.0,
        1.0,
        2.220446049250313e-16,
        0.0,
        0.0,
        0.0,
        0.0,
        1.0
      ],
      "name": "Sketchfab_model"
    },
    {
      "children": [
        2
      ],
      "matrix": [
        1.0,
        0.0,
        0.0,
        0.0,
        0.0,
        0.0,
        1.0,
        0.0,
        0.0,
        -1.0,
        0.0,
        0.0,
        0.0,
        0.0,
        0.0,
        1.0
      ],
      "name": "ac2784c4d14f477cadf84b8f76309d6a.fbx"
    },
    {
      "children": [
        3
      ],
      "name": "RootNode"
    },
    {
      "children": [
        4
      ],
      "matrix": [
        100.0,
        0.0,
        0.0,
        0.0,
        -0.0,
        -1.629206793918314e-05,
        -99.99999999999868,
        0.0,
        0.0,
        99.99999999999868,
        -1.629206793918314e-05,
        0.0,
        -500.9434814453125,
        -295.6727600097656,
        -1357.8060302734375,
        1.0
      ],
      "name": "cordon"
    },
    {
      "mesh": 0,
      "name": "cordon_Truss_truss_0"
    }
  ],
  "samplers": [
    {
      "magFilter": 9729,
      "minFilter": 9987,
      "wrapS": 10497,
      "wrapT": 10497
    }
  ],
  "scene": 0,
  "scenes": [
    {
      "name": "Sketchfab_Scene",
      "nodes": [
        0
      ]
    }
  ],
  "textures": [
    {
      "sampler": 0,
      "source": 0
    },
    {
      "sampler": 0,
      "source": 1
    },
    {
      "sampler": 0,
      "source": 2
    }
  ]
}
