{
  "accessors": [
    {
      "bufferView": 2,
      "componentType": 5126,
      "count": 480,
      "max": [
        0.4125489890575409,
        0.15912100672721863,
        0.4333449900150299
      ],
      "min": [
        -0.44543299078941345,
        -0.5328429937362671,
        -0.3353720009326935
      ],
      "type": "VEC3"
    },
    {
      "bufferView": 2,
      "byteOffset": 5760,
      "componentType": 5126,
      "count": 480,
      "max": [
        0.9840192198753357,
        0.9936316609382629,
        0.9985935688018799
      ],
      "min": [
        -0.9863255023956299,
        -0.9959061145782471,
        -0.9993755221366882
      ],
      "type": "VEC3"
    },
    {
      "bufferView": 3,
      "componentType": 5126,
      "count": 480,
      "max": [
        0.9998340606689453,
        0.9930905699729919,
        0.6345818638801575,
        1.0
      ],
      "min": [
        -0.9993921518325806,
        -0.9958708882331848,
        -0.6684734225273132,
        1.0
      ],
      "type": "VEC4"
    },
    {
      "bufferView": 1,
      "componentType": 5126,
      "count": 480,
      "max": [
        1.0,
        1.0
      ],
      "min": [
        0.0,
        0.0
      ],
      "type": "VEC2"
    },
    {
      "bufferView": 0,
      "componentType": 5125,
      "count": 2304,
      "type": "SCALAR"
    },
    {
      "bufferView": 2,
      "byteOffset": 11520,
      "componentType": 5126,
      "count": 9981,
      "max": [
        1.0,
        0.8513349890708923,
        0.7748900055885315
      ],
      "min": [
        -1.0,
        -0.8513349890708923,
        -0.7748900055885315
      ],
      "type": "VEC3"
    },
    {
      "bufferView": 2,
      "byteOffset": 131292,
      "componentType": 5126,
      "count": 9981,
      "max": [
        1.0,
        0.999997615814209,
        0.9999978542327881
      ],
      "min": [
        -0.9999471306800842,
        -0.9997959733009338,
        -1.0
      ],
      "type": "VEC3"
    },
    {
      "bufferView": 3,
      "byteOffset": 7680,
      "componentType": 5126,
      "count": 9981,
      "max": [
        1.0,
        0.9999955296516418,
        0.9996414184570313,
        1.0
      ],
      "min": [
        -1.0,
        -0.9999995231628418,
        -0.9999914169311523,
        -1.0
      ],
      "type": "VEC4"
    },
    {
      "bufferView": 1,
      "byteOffset": 3840,
      "componentType": 5126,
      "count": 9981,
      "max": [
        0.9994999766349792,
        0.9991000294685364
      ],
      "min": [
        0.0005000000237487257,
        0.0005000000237487257
      ],
      "type": "VEC2"
    },
    {
      "bufferView": 0,
      "byteOffset": 9216,
      "componentType": 5125,
      "count": 49518,
      "type": "SCALAR"
    }
  ],
  "asset": {
    "extras": {
      "author": "ivan alarcon (https://sketchfab.com/capivan)",
      "license": "CC-BY-4.0 (http://creativecommons.org/licenses/by/4.0/)",
      "source": "https://sketchfab.com/3d-models/kirby-model-3d-86eac89abaa74bd8bad131c2f249b5e0",
      "title": "Kirby model 3D"
    },
    "generator": "Sketchfab-12.67.0",
    "version": "2.0"
  },
  "bufferViews": [
    {
      "buffer": 0,
      "byteLength": 207288,
      "name": "floatBufferViews",
      "target": 34963
    },
    {
      "buffer": 0,
      "byteLength": 83688,
      "byteOffset": 207288,
      "byteStride": 8,
      "name": "floatBufferViews",
      "target": 34962
    },
    {
      "buffer": 0,
      "byteLength": 251064,
      "byteOffset": 290976,
      "byteStride": 12,
      "name": "floatBufferViews",
      "target": 34962
    },
    {
      "buffer": 0,
      "byteLength": 167376,
      "byteOffset": 542040,
      "byteStride": 16,
      "name": "floatBufferViews",
      "target": 34962
    }
  ],
  "buffers": [
    {
      "byteLength": 709416,
      "uri": "scene.bin"
    }
  ],
  "images": [
    {
      "uri": "textures/wire_225087143_baseColor.jpeg"
    },
    {
      "uri": "textures/wire_225087143_metallicRoughness.png"
    },
    {
      "uri": "textures/wire_225087143_normal.png"
    },
    {
      "uri": "textures/wire_154185229_baseColor.jpeg"
    },
    {
      "uri": "textures/wire_154185229_metallicRoughness.png"
    },
    {
      "uri": "textures/wire_154185229_normal.png"
    }
  ],
  "materials": [
    {
      "doubleSided": true,
      "name": "wire_225087143",
      "normalTexture": {
        "index": 2
      },
      "pbrMetallicRoughness": {
        "baseColorTexture": {
          "index": 0
        },
        "metallicRoughnessTexture": {
          "index": 1
        }
      }
    },
    {
      "doubleSided": true,
      "name": "wire_154185229",
      "normalTexture": {
        "index": 5
      },
      "pbrMetallicRoughness": {
        "baseColorTexture": {
          "index": 3
        },
        "metallicRoughnessTexture": {
          "index": 4
        }
      }
    }
  ],
  "meshes": [
    {
      "name": "defaultMaterial",
      "primitives": [
        {
          "attributes": {
            "NORMAL": 1,
            "POSITION": 0,
            "TANGENT": 2,
            "TEXCOORD_0": 3
          },
          "indices": 4,
          "material": 1,
          "mode": 4
        }
      ]
    },
    {
      "name": "defaultMaterial",
      "primitives": [
        {
          "attributes": {
            "NORMAL": 6,
            "POSITION": 5,
            "TANGENT": 7,
            "TEXCOORD_0": 8
          },
          "indices": 9,
          "material": 0,
          "mode": 4
        }
      ]
    }
  ],
  "nodes": [
    {
      "children": [
        1
      ],
      "matrix": [
        1.0,
        0.0,
        0.0,
        0.0,
        0.0,
        2.220446049250313e-16,
        -1.0,
        0.0,
        0.0,
        1.0,
        2.220446049250313e-16,
        0.0,
        0.0,
        0.0,
        0.0,
        1.0
      ],
      "name": "Sketchfab_model"
    },
    {
      "children": [
        2,
        4
      ],
      "matrix": [
        1.0,
        0.0,
        0.0,
        0.0,
        0.0,
        -4.371139006309477e-08,
        0.999999999999999,
        0.0,
        0.0,
        -0.999999999999999,
        -4.371139006309477e-08,
        0.0,
        0.0,
        0.0,
        0.0,
        1.0
      ],
      "name": "Collada visual scene group"
    },
    {
      "children": [
        3
      ],
      "name": "g"
    },
    {
      "mesh": 0,
      "name": "defaultMaterial"
    },
    {
      "children": [
        5
      ],
      "name": "g"
    },
    {
      "mesh": 1,
      "name": "defaultMaterial"
    }
  ],
  "samplers": [
    {
      "magFilter": 9729,
      "minFilter": 9987,
      "wrapS": 10497,
      "wrapT": 10497
    }
  ],
  "scene": 0,
  "scenes": [
    {
      "name": "Sketchfab_Scene",
      "nodes": [
        0
      ]
    }
  ],
  "textures": [
    {
      "sampler": 0,
      "source": 0
    },
    {
      "sampler": 0,
      "source": 1
    },
    {
      "sampler": 0,
      "source": 2
    },
    {
      "sampler": 0,
      "source": 3
    },
    {
      "sampler": 0,
      "source": 4
    },
    {
      "sampler": 0,
      "source": 5
    }
  ]
}
